<?xml version="1.0" standalone="no"?>
<!DOCTYPE svg PUBLIC "-//W3C//DTD SVG 20010904//EN"
 "http://www.w3.org/TR/2001/REC-SVG-20010904/DTD/svg10.dtd">
<svg version="1.0" xmlns="http://www.w3.org/2000/svg"
 width="660.000000pt" height="660.000000pt" viewBox="0 0 660.000000 660.000000"
 preserveAspectRatio="xMidYMid meet">
<metadata>
Created by potrace 1.14, written by Peter Selinger 2001-2017
</metadata>
<g transform="translate(0.000000,660.000000) scale(0.100000,-0.100000)"
fill="#000000" stroke="none">
<path d="M2946 6580 c-19 -6 -19 -7 -1 -13 19 -8 90 2 81 11 -9 8 -59 10 -80
2z"/>
<path d="M2320 6535 c-19 -7 -60 -18 -90 -25 -123 -28 -321 -132 -399 -211
-42 -42 -113 -151 -133 -204 -14 -37 -21 -42 -79 -61 -35 -12 -84 -30 -109
-41 -25 -11 -63 -26 -85 -33 -55 -17 -162 -69 -211 -102 -23 -15 -44 -28 -47
-28 -20 0 -147 -103 -207 -167 -75 -81 -110 -140 -155 -263 -32 -89 -38 -223
-15 -332 15 -73 13 -81 -35 -146 -49 -68 -53 -139 -17 -352 4 -25 3 -72 -1
-105 -30 -204 -209 -355 -472 -400 -30 -5 -36 -9 -24 -16 24 -13 253 20 344
49 56 18 178 74 219 100 23 14 64 40 91 58 67 43 147 123 190 190 19 30 41 54
49 54 27 0 36 -87 17 -160 -27 -107 -96 -180 -264 -279 -158 -92 -246 -170
-289 -256 -23 -44 -40 -141 -33 -178 9 -44 65 -158 82 -164 7 -3 13 -10 13
-17 0 -17 96 -87 182 -131 43 -22 81 -48 84 -58 9 -30 -51 -117 -156 -226
-126 -129 -190 -249 -189 -351 l0 -35 21 40 c63 120 182 231 328 307 47 25
139 90 176 126 l22 21 27 -52 c50 -92 118 -179 220 -283 l101 -100 -57 -68
c-49 -58 -59 -76 -69 -132 -14 -75 -8 -116 29 -199 19 -41 46 -77 85 -113 l58
-52 -24 -20 c-27 -23 -17 -26 20 -6 43 23 125 50 160 53 17 2 49 4 70 6 21 2
36 8 35 15 -4 17 104 16 110 0 4 -10 7 -10 18 0 17 16 34 15 72 -2 46 -20 194
-49 208 -40 7 4 9 3 6 -3 -3 -5 22 -24 56 -42 75 -40 124 -84 143 -130 22 -53
16 -60 -12 -13 -14 23 -26 42 -27 42 -2 0 -2 -34 0 -75 2 -74 2 -75 -22 -75
-20 0 -25 5 -25 23 0 29 -34 69 -78 92 -30 15 -32 18 -19 33 27 32 27 40 2 44
-13 3 -22 2 -20 -2 3 -5 -3 -11 -12 -14 -18 -7 -33 9 -33 35 0 12 -7 15 -25
11 -18 -3 -25 -11 -25 -27 0 -21 -6 -22 -83 -28 -45 -3 -96 -13 -112 -21 -17
-9 -35 -16 -42 -16 -6 0 -32 -16 -57 -35 -42 -32 -49 -34 -97 -28 -63 7 -60
-9 6 -38 35 -16 44 -25 48 -51 3 -18 8 -43 12 -55 5 -16 2 -23 -14 -28 -12 -3
-21 -12 -21 -20 0 -17 50 -29 63 -16 13 13 54 14 61 2 6 -10 44 -18 125 -27
74 -8 105 -20 97 -40 -5 -13 0 -15 36 -9 57 10 41 -5 -30 -27 -76 -24 -262
-33 -367 -18 -133 20 -292 109 -345 194 -22 37 -28 142 -9 177 6 11 8 25 6 32
-2 7 -12 -3 -22 -22 -21 -42 -23 -147 -2 -188 32 -61 172 -157 268 -183 73
-20 172 -40 201 -40 55 0 58 -6 29 -65 -33 -68 -138 -158 -207 -179 -10 -3 3
-3 29 -1 27 3 68 17 93 31 54 32 145 132 160 177 10 30 15 32 70 39 86 10 205
43 261 72 101 54 178 152 190 246 6 43 -28 127 -70 171 -38 39 -117 86 -193
114 -72 26 -113 33 -84 15 10 -7 11 -10 2 -10 -7 0 -15 7 -18 15 -4 8 -19 15
-35 15 -20 0 -35 9 -55 35 -16 22 -35 35 -49 35 -21 0 -23 5 -27 83 -7 113
-63 231 -160 333 l-30 32 23 16 c13 9 27 16 32 16 5 0 36 -26 70 -58 34 -32
91 -77 127 -100 36 -24 72 -47 80 -52 58 -38 127 -80 202 -124 104 -60 276
-206 307 -258 27 -48 27 -79 -5 -169 -61 -172 -76 -215 -80 -239 -3 -14 -7
-33 -10 -43 -9 -30 -6 -125 7 -181 l12 -54 -48 -74 c-67 -101 -88 -158 -89
-243 -1 -62 3 -77 34 -131 40 -69 74 -111 110 -137 36 -25 50 -21 17 6 -27 22
-51 59 -84 127 -11 22 -17 61 -17 105 -1 74 15 124 63 198 l24 37 27 -52 c15
-29 44 -82 66 -118 57 -93 106 -206 111 -255 5 -36 1 -47 -26 -77 -17 -20 -31
-40 -31 -46 0 -26 -53 -52 -105 -52 -74 0 -155 -17 -211 -44 -27 -13 -69 -33
-94 -44 -50 -23 -140 -104 -140 -127 0 -7 -8 -20 -18 -27 -44 -31 -33 -161 19
-238 40 -57 139 -116 274 -161 99 -34 101 -34 285 -34 192 1 201 2 330 52 126
49 194 98 253 182 26 38 30 54 31 105 0 67 -31 142 -76 184 -78 72 -263 150
-359 152 -31 0 -79 22 -79 35 0 6 4 15 10 21 6 6 6 22 -1 44 -5 19 -15 64 -20
100 -5 37 -25 97 -46 140 -53 111 -62 135 -82 215 -28 109 -23 130 41 189 30
28 82 77 117 109 64 60 138 165 159 228 18 53 15 139 -9 215 -22 73 -65 154
-80 154 -5 0 -9 47 -8 107 2 269 -59 398 -314 658 -143 147 -145 149 -129 173
20 30 100 92 120 92 19 0 116 -104 137 -147 9 -18 19 -33 23 -33 11 0 81 -95
92 -125 5 -13 19 -36 32 -51 173 -208 215 -239 363 -274 155 -36 347 -21 460
38 94 48 133 87 268 264 119 158 170 219 229 271 34 32 65 57 69 57 3 0 27
-21 52 -46 54 -53 100 -127 95 -152 -2 -10 -71 -82 -155 -160 -159 -149 -200
-198 -253 -299 -17 -35 -36 -63 -42 -63 -5 0 -7 -4 -4 -9 3 -5 -1 -28 -10 -52
-18 -52 -22 -69 -34 -160 -10 -84 5 -150 51 -223 77 -121 75 -116 55 -183 -14
-46 -17 -79 -13 -139 12 -164 45 -224 218 -399 l79 -81 -16 -54 c-30 -100 -52
-137 -86 -144 -18 -3 -39 -12 -47 -20 -9 -7 -51 -16 -96 -19 -106 -8 -258 -48
-341 -89 -60 -30 -172 -124 -160 -135 2 -3 -2 -20 -10 -38 -31 -75 -8 -166 58
-226 24 -21 47 -38 51 -39 5 0 21 -8 35 -19 38 -26 185 -78 257 -90 73 -13
282 -16 348 -6 26 4 47 3 47 -1 0 -42 -144 -188 -228 -233 -13 -7 -21 -15 -19
-18 9 -9 44 7 84 38 21 17 54 43 72 57 71 54 122 106 143 143 16 28 37 46 85
69 78 38 165 125 181 179 29 97 6 201 -59 266 -35 35 -42 48 -45 90 -7 86 -40
158 -150 325 -23 34 -23 37 -9 96 34 147 18 294 -48 438 -35 73 -35 74 -17
104 21 34 203 192 222 192 5 0 37 18 71 40 70 46 174 144 220 208 36 49 49 42
18 -9 -28 -45 -28 -123 -1 -167 22 -35 84 -77 202 -136 42 -21 85 -47 94 -57
20 -22 37 -102 37 -179 1 -81 -8 -107 -40 -115 -15 -3 -34 -12 -41 -18 -8 -6
-73 -23 -146 -38 -139 -28 -204 -55 -284 -115 -64 -49 -92 -103 -92 -177 0
-122 89 -218 245 -267 22 -7 45 -16 50 -20 6 -4 33 -11 60 -15 81 -11 145 -26
143 -33 -2 -12 14 -85 30 -137 15 -48 83 -135 105 -135 6 0 -1 12 -16 28 -60
63 -103 229 -65 253 7 5 41 9 76 9 114 0 201 20 292 67 77 40 170 114 170 136
0 5 9 22 20 38 20 27 20 30 5 90 -27 103 -111 196 -199 220 -20 5 -36 14 -36
19 0 5 -18 14 -41 20 -31 9 -38 14 -30 24 6 7 15 33 20 57 5 24 15 63 21 86
15 53 6 123 -20 154 -11 12 -20 26 -20 31 0 5 -17 27 -39 51 -30 33 -40 53
-45 92 -15 113 -29 182 -44 210 -9 17 -16 32 -17 35 0 3 -9 18 -19 33 -19 28
-19 28 5 52 29 29 53 42 249 145 85 45 164 89 175 99 11 10 38 29 60 42 53 31
83 57 186 162 48 48 90 87 93 87 4 0 18 -24 31 -52 23 -49 27 -68 39 -173 6
-47 -31 -180 -75 -271 -32 -68 -36 -108 -15 -159 14 -32 56 -67 56 -46 0 5 -4
13 -10 16 -5 3 -14 24 -20 46 -12 43 -2 72 56 169 189 316 214 545 77 728 -14
19 -26 50 -28 75 -14 166 -18 204 -26 226 -7 17 -6 27 3 32 9 6 8 10 -5 15 -9
3 -17 12 -17 19 0 7 -22 55 -49 106 -65 127 -71 136 -112 199 -87 134 -171
303 -195 392 -19 75 -29 258 -13 258 37 0 95 -72 122 -152 8 -25 23 -95 33
-155 22 -137 43 -182 124 -264 95 -97 243 -164 405 -184 66 -9 70 7 7 24 -58
16 -166 78 -209 120 -22 21 -52 62 -66 92 -46 93 -53 170 -32 324 15 116 15
211 -1 283 -30 137 -75 208 -188 299 l-39 32 25 39 c36 54 53 141 37 190 -57
175 -182 341 -374 498 -56 45 -169 124 -179 124 -9 0 -66 52 -66 61 0 4 -14
27 -30 51 -101 143 -163 218 -211 257 -30 24 -65 53 -79 64 -36 30 -123 46
-295 53 -145 6 -377 -10 -496 -35 -239 -50 -485 -111 -519 -130 -8 -4 -42 -16
-75 -26 -33 -9 -72 -24 -87 -33 -26 -15 -29 -15 -51 6 -13 12 -28 22 -34 22
-6 0 -38 22 -70 48 -142 118 -325 213 -548 285 -209 67 -332 83 -415 52z m220
-25 c60 -9 125 -28 175 -50 11 -5 56 -23 100 -40 164 -64 309 -144 354 -195
17 -19 34 -35 39 -35 5 0 15 -6 21 -14 9 -11 9 -15 -1 -19 -9 -3 -8 -7 5 -12
16 -7 16 -8 1 -20 -14 -10 -15 -13 -3 -23 8 -6 30 -25 49 -41 19 -17 46 -40
60 -51 13 -12 26 -17 28 -12 2 6 12 8 22 5 11 -3 17 -9 15 -14 -3 -4 10 -19
30 -32 19 -13 32 -27 28 -30 -3 -4 -2 -7 4 -7 6 0 8 -11 6 -24 -4 -18 0 -25
17 -29 15 -4 21 -11 17 -21 -4 -9 -3 -16 1 -16 4 0 7 -16 6 -35 -1 -19 2 -38
7 -41 5 -3 7 -10 4 -15 -4 -5 1 -12 10 -16 10 -3 21 0 25 7 6 9 10 7 15 -9 3
-11 11 -21 16 -21 5 0 9 -9 9 -19 0 -11 5 -23 10 -26 6 -4 10 -14 9 -23 -2
-10 1 -32 5 -50 7 -28 11 -32 29 -26 31 9 30 8 9 51 -25 51 -36 120 -19 126 7
3 5 6 -5 6 -19 1 -26 31 -8 31 6 0 10 5 10 10 0 6 -8 10 -17 10 -15 0 -16 2
-3 10 12 7 12 12 -4 29 -10 11 -23 18 -27 15 -15 -9 -10 14 6 30 13 13 13 16
-1 30 -8 9 -11 16 -5 16 7 0 9 10 5 28 -7 24 -5 25 9 14 13 -11 16 -10 22 7 3
12 3 25 0 31 -4 6 11 10 37 10 40 1 42 2 24 15 -20 15 -20 15 0 15 14 0 15 3
6 9 -15 9 -7 17 41 41 27 13 38 33 15 25 -7 -2 -30 -6 -51 -8 -31 -4 -36 -2
-26 9 6 7 21 16 32 20 12 3 42 15 67 27 59 26 176 67 193 67 8 0 27 6 43 14
16 7 85 19 153 26 69 7 138 18 154 25 20 8 39 9 66 2 21 -6 47 -7 57 -2 17 7
17 8 -6 16 -14 5 56 7 165 4 207 -4 249 -13 308 -62 125 -107 294 -322 342
-437 16 -38 65 -217 65 -237 0 -6 -6 -9 -12 -6 -7 2 -12 11 -10 20 1 9 -6 36
-16 59 -11 24 -23 58 -27 77 -8 36 -64 139 -98 177 -11 12 -25 33 -31 45 -6
12 -17 24 -25 27 -9 3 -8 -4 6 -24 33 -50 43 -68 70 -124 31 -63 38 -90 22
-90 -8 0 -8 -4 -2 -12 16 -21 23 -61 12 -74 -7 -9 -4 -18 12 -33 15 -14 23
-35 25 -71 3 -28 8 -69 13 -89 7 -31 5 -40 -9 -49 -20 -12 -21 -40 -2 -60 17
-18 15 -33 -8 -61 -12 -13 -26 -21 -35 -17 -8 3 -15 1 -15 -4 0 -6 8 -10 18
-10 10 0 23 -5 30 -12 17 -17 15 -67 -3 -74 -8 -4 -15 -13 -15 -21 0 -8 -4
-12 -9 -9 -5 4 -7 -3 -4 -14 6 -22 4 -23 -77 -21 -64 1 -46 -12 35 -26 32 -5
51 -13 52 -23 5 -25 -11 -39 -44 -42 -22 -1 -29 -6 -25 -17 3 -9 1 -12 -7 -7
-8 6 -10 -3 -6 -31 6 -46 -12 -74 -49 -77 -18 -1 -26 -7 -26 -19 0 -14 -5 -17
-22 -12 -18 5 -20 4 -8 -4 13 -9 12 -11 -5 -11 -18 -1 -18 -2 3 -11 13 -5 27
-7 32 -4 4 3 13 -2 20 -10 8 -10 9 -15 2 -15 -6 0 -9 -7 -6 -14 6 -17 -48 -36
-78 -28 -20 5 -26 62 -7 62 5 0 8 4 5 9 -3 5 4 20 15 35 l20 26 -26 0 c-25 0
-27 3 -20 27 9 38 26 58 36 42 10 -17 39 -3 39 20 0 15 -5 18 -21 14 -16 -4
-20 -2 -17 8 3 8 13 13 22 13 25 -3 19 6 -14 17 -34 12 -40 41 -14 77 15 22
41 32 28 10 -4 -7 -3 -8 5 -4 7 4 10 13 8 19 -2 7 5 17 16 23 19 11 19 12 -11
18 -37 9 -40 39 -7 71 25 25 22 43 -11 55 -15 6 -24 18 -24 30 0 12 5 18 10
15 13 -8 13 -4 -6 41 -9 21 -23 43 -31 49 -8 6 -13 18 -11 26 3 17 -32 89 -44
89 -5 0 -8 10 -8 23 0 31 -85 131 -158 185 -17 13 -29 29 -26 37 3 7 -7 21
-25 31 -16 10 -28 21 -26 24 7 11 -111 40 -162 40 -65 0 -131 -19 -112 -31 9
-7 5 -7 -15 -3 -17 4 -27 3 -23 -2 3 -5 -6 -14 -19 -21 -13 -6 -24 -7 -24 -2
0 11 -30 0 -51 -18 -10 -8 -24 -11 -35 -6 -18 7 -18 6 -1 -11 21 -22 23 -61 2
-52 -8 3 -14 2 -14 -2 4 -24 -3 -42 -17 -42 -8 0 -12 -4 -9 -10 3 -5 -2 -10
-12 -11 -14 0 -12 -3 7 -12 17 -8 24 -18 22 -30 -5 -25 -33 -57 -49 -57 -17 0
-16 -15 2 -30 21 -17 19 -30 -4 -30 -10 0 -21 -7 -25 -15 -3 -8 -1 -15 4 -15
6 0 10 -7 10 -16 0 -8 4 -13 9 -10 15 10 39 -4 45 -26 4 -18 7 -19 20 -8 9 7
16 22 16 33 0 16 3 18 12 9 17 -17 48 -15 48 3 0 8 5 15 11 15 5 0 8 4 4 9 -3
5 0 13 6 17 12 7 9 -23 -6 -58 -5 -13 -3 -18 9 -18 9 0 15 5 14 12 -2 7 12 13
32 15 19 2 37 8 38 13 2 6 8 10 14 10 6 0 7 -7 4 -16 -4 -11 -1 -14 12 -12 10
2 16 12 15 23 -1 11 0 14 3 8 8 -19 32 -16 37 5 4 13 5 11 6 -5 1 -27 13 -29
31 -8 7 9 16 12 19 7 3 -5 21 -7 38 -5 28 5 31 8 23 23 -7 13 -7 21 0 25 6 3
13 -1 16 -9 3 -9 10 -13 15 -10 5 3 6 -3 2 -12 -5 -15 -2 -16 25 -11 33 7 55
-9 28 -19 -9 -3 -16 -10 -16 -15 0 -6 9 -5 21 1 19 11 20 10 9 -9 -7 -14 -7
-21 0 -21 5 0 10 4 10 10 0 5 12 13 28 16 15 4 30 12 34 18 5 6 8 1 8 -11 0
-34 1 -37 11 -50 6 -6 14 -25 19 -42 8 -30 1 -38 -32 -32 -5 0 -8 -3 -8 -9 0
-5 10 -10 23 -10 18 0 19 -2 7 -10 -13 -8 -12 -10 3 -10 9 0 17 -4 17 -10 0
-5 7 -10 15 -10 8 0 15 -4 15 -10 0 -5 -6 -10 -14 -10 -7 0 -19 -7 -26 -15
-10 -12 -9 -15 7 -15 19 0 43 -18 43 -32 0 -4 -7 -8 -15 -8 -9 0 -12 6 -9 15
4 8 1 15 -5 15 -6 0 -11 -7 -11 -15 0 -13 -11 -18 -40 -17 -3 0 -16 3 -30 6
-17 5 -11 -1 15 -16 25 -15 41 -32 43 -47 2 -13 12 -25 22 -28 10 -3 20 -13
23 -23 3 -14 -3 -19 -27 -24 -25 -5 -28 -9 -16 -17 12 -8 12 -12 2 -16 -10 -4
-8 -9 8 -20 21 -14 21 -15 2 -46 -11 -18 -18 -37 -15 -43 2 -6 -8 -14 -22 -17
-19 -3 -33 2 -50 19 -13 13 -30 24 -37 23 -10 0 -10 -2 0 -6 6 -2 10 -9 6 -14
-3 -5 0 -9 6 -9 6 0 22 -11 36 -25 14 -14 29 -23 34 -20 5 3 11 1 15 -5 3 -5
1 -10 -4 -10 -6 0 -10 -8 -9 -17 4 -54 -1 -61 -54 -77 -29 -8 -53 -14 -54 -13
-1 1 0 14 3 29 5 27 6 27 35 12 16 -8 35 -13 41 -11 7 2 -7 12 -30 22 -48 19
-57 20 -59 2 0 -6 -2 -20 -2 -31 -1 -12 -7 -16 -17 -12 -8 3 -15 1 -15 -4 0
-6 -4 -10 -10 -10 -5 0 -11 15 -11 33 -2 30 -2 30 -6 5 -2 -16 -9 -28 -14 -28
-5 0 -9 -4 -9 -10 0 -5 7 -7 16 -3 20 7 16 -26 -6 -45 -8 -7 12 0 45 14 74 34
130 42 138 21 3 -9 -2 -17 -14 -20 -10 -3 -19 -11 -19 -19 0 -11 2 -10 9 1 15
23 31 3 21 -24 -5 -14 -7 -25 -3 -25 3 0 4 -2 2 -5 -3 -2 -20 -1 -37 4 -20 6
-32 6 -32 0 0 -5 7 -9 17 -9 28 0 7 -11 -31 -16 -23 -3 -36 0 -36 7 0 7 -10 9
-24 7 -17 -4 -23 -1 -19 9 3 7 0 13 -6 13 -6 0 -11 -16 -11 -35 0 -33 10 -41
43 -36 4 0 7 -4 7 -9 0 -7 -14 -8 -37 -4 -50 9 -56 13 -42 30 6 7 8 22 4 31
-6 17 -7 17 -16 1 -8 -15 -13 -16 -24 -5 -12 10 -12 14 1 24 13 10 13 12 -5
18 -12 3 -21 11 -21 16 0 6 -5 7 -11 3 -8 -4 -7 -9 2 -15 11 -7 11 -9 1 -9 -7
0 -11 -4 -8 -9 3 -5 -1 -12 -10 -15 -25 -10 -34 -7 -34 9 0 17 -26 20 -36 4
-3 -6 -2 -15 4 -21 6 -6 8 -16 6 -23 -3 -7 -1 -16 5 -20 6 -3 11 -21 11 -38 1
-18 7 -49 14 -69 8 -21 12 -38 10 -38 -4 0 -37 61 -40 75 -2 6 -15 39 -29 74
-38 91 -42 173 -14 296 35 152 25 247 -31 292 -21 17 -46 17 -32 1 5 -7 8 -26
5 -43 -2 -16 -4 -43 -3 -59 0 -21 -3 -27 -14 -23 -9 4 -18 2 -21 -3 -3 -4 1
-11 7 -13 8 -4 7 -6 -4 -6 -17 -1 -18 -27 -2 -52 4 -8 -3 -9 -26 -4 -32 7 -32
7 -25 -25 7 -31 6 -32 -18 -28 -22 4 -25 2 -22 -20 1 -13 8 -28 15 -32 21 -13
-12 -17 -55 -5 -37 10 -61 35 -33 35 9 0 9 3 1 11 -12 12 -37 3 -28 -11 3 -4
-2 -10 -10 -14 -8 -3 -14 0 -12 7 1 7 -10 10 -30 8 -24 -2 -33 2 -33 13 0 8 4
18 10 21 6 4 1 18 -12 35 -22 30 -48 46 -48 30 0 -6 8 -10 18 -10 13 0 14 -2
4 -9 -11 -7 -11 -11 2 -24 9 -8 16 -18 16 -20 0 -14 -35 -14 -77 -2 -27 8 -59
15 -72 15 -14 0 -33 7 -43 16 -12 12 -36 17 -78 17 -38 0 -64 5 -71 14 -7 8
-33 13 -70 13 -33 0 -59 4 -59 8 0 22 -168 19 -256 -4 -86 -23 -184 -21 -184
3 0 63 -169 264 -282 337 -32 20 -59 41 -59 46 -1 6 -2 14 -3 19 0 5 -5 13
-10 18 -5 5 -6 3 -2 -4 8 -15 -3 -17 -23 -4 -8 5 -12 15 -9 23 4 9 -2 14 -15
15 -24 2 -44 20 -33 30 4 4 11 2 15 -5 7 -12 101 -27 101 -16 0 6 -62 29 -70
27 -3 -1 -7 8 -7 19 -2 16 1 18 10 9 6 -6 17 -11 25 -11 12 0 11 4 -2 25 -16
24 -16 25 6 26 17 1 19 2 6 6 -19 5 -25 33 -8 33 6 0 10 5 10 11 0 6 -9 8 -20
5 -11 -3 -29 -8 -39 -11 -16 -5 -18 -2 -14 15 3 13 11 19 19 16 8 -3 14 -1 14
4 0 6 10 6 26 -1 35 -13 41 -6 15 20 -12 12 -21 27 -21 35 0 8 -6 17 -12 19
-8 3 -5 6 6 6 19 1 19 7 0 99 -4 21 -2 32 5 32 6 0 11 5 11 10 0 6 -6 10 -12
9 -27 -3 -37 2 -32 15 4 11 0 13 -18 9 -19 -5 -21 -3 -10 8 6 7 12 21 12 30 0
9 10 20 23 25 18 6 15 8 -20 11 -24 2 -43 8 -43 14 0 5 -4 9 -10 9 -5 0 -10
-7 -10 -15 0 -9 -12 -20 -26 -25 -32 -13 -54 -13 -35 -1 11 7 7 10 -15 13
l-29 4 42 20 c42 19 55 34 30 34 -7 0 -22 -7 -33 -15 -10 -8 -29 -15 -41 -15
-20 0 -53 -33 -53 -53 0 -5 11 -6 24 -3 16 4 26 1 30 -9 4 -11 -2 -14 -23 -11
-15 2 -33 6 -40 10 -6 4 -11 2 -11 -4 0 -6 11 -15 25 -20 26 -10 25 -31 -1
-57 -7 -7 -14 -18 -16 -25 -3 -7 -9 -8 -19 -2 -8 5 -17 9 -21 9 -3 0 -10 4
-15 8 -4 5 -3 8 2 7 24 -5 33 1 28 20 -3 11 -9 17 -14 15 -4 -3 -5 -13 -2 -23
3 -9 3 -14 -2 -10 -12 11 -35 -11 -28 -28 3 -8 0 -14 -7 -14 -6 0 -8 5 -4 12
5 8 2 9 -12 3 -10 -4 -27 -7 -36 -7 -34 1 -18 -14 27 -26 45 -12 64 -34 23
-26 -22 4 -22 4 -3 -5 32 -14 42 -33 40 -76 -1 -40 12 -75 28 -75 5 0 7 7 3
15 -3 8 0 15 6 15 7 0 7 4 1 13 -18 22 -25 67 -11 68 8 0 9 2 2 5 -11 5 -7 64
5 64 4 0 8 -21 10 -47 4 -77 9 -122 16 -133 3 -5 -1 -10 -9 -10 -9 0 -16 -5
-16 -11 0 -5 5 -7 10 -4 9 5 11 0 9 -21 0 -3 13 -15 28 -27 15 -12 29 -25 31
-29 2 -4 11 -5 20 -2 9 3 7 -1 -6 -8 -17 -11 -20 -16 -10 -26 7 -7 18 -12 25
-12 7 0 13 -4 13 -10 0 -5 -6 -10 -12 -10 -9 0 -9 -3 1 -9 11 -7 10 -10 -5
-13 -10 -3 2 -4 27 -4 28 1 46 6 46 13 0 7 -4 10 -8 7 -4 -2 -16 6 -26 19 -10
13 -25 26 -33 30 -12 4 -11 6 3 6 10 1 20 -6 23 -14 4 -8 10 -15 16 -15 11 0
88 -62 88 -71 0 -4 -10 -9 -22 -13 -17 -4 -20 -8 -10 -14 22 -14 -9 -32 -76
-42 -62 -10 -112 -1 -112 20 0 6 -12 15 -27 21 -16 6 -41 17 -57 24 -23 12
-81 28 -107 30 -4 0 -28 15 -53 33 -47 34 -52 58 -10 48 29 -8 32 9 4 26 -11
7 -20 21 -20 30 0 21 -4 22 -31 8 -12 -7 -19 -7 -19 -1 0 6 -11 6 -30 -1 -26
-8 -34 -7 -50 7 -11 10 -20 14 -20 9 -1 -5 -14 7 -31 26 -29 34 -29 35 -9 40
28 7 28 22 -1 37 -20 11 -26 10 -36 -4 -10 -13 -15 -14 -28 -3 -8 7 -15 17
-15 22 0 5 -15 22 -32 39 -18 16 -41 37 -52 47 -20 18 -66 108 -66 130 0 6 -4
12 -9 12 -5 0 -12 -6 -14 -12 -4 -10 -6 -10 -6 -1 -1 6 4 15 9 18 6 3 10 11
10 16 0 6 -4 8 -9 4 -5 -3 -13 5 -17 17 -3 12 -2 24 3 25 5 2 8 17 7 34 -2 33
13 86 45 154 38 80 251 244 366 281 27 9 55 20 60 24 9 7 78 22 155 34 49 7
106 6 170 -4z m723 -397 c-7 -2 -19 -2 -25 0 -7 3 -2 5 12 5 14 0 19 -2 13 -5z
m-585 -241 c6 -18 -15 -14 -22 4 -4 10 -1 14 6 12 6 -2 14 -10 16 -16z m-908
-17 c0 -8 -2 -15 -4 -15 -2 0 -6 7 -10 15 -3 8 -1 15 4 15 6 0 10 -7 10 -15z
m937 -21 c-3 -3 -12 -4 -19 -1 -8 3 -5 6 6 6 11 1 17 -2 13 -5z m-1424 -15
c-6 -6 -9 -18 -6 -26 5 -13 3 -14 -18 -2 -20 11 -21 14 -6 17 9 2 17 8 17 13
0 5 5 9 12 9 9 0 9 -3 1 -11z m113 -9 c0 -11 -8 -22 -18 -26 -9 -3 -20 -14
-23 -25 -4 -10 -13 -19 -20 -19 -8 0 -20 -8 -27 -19 -7 -10 -22 -20 -33 -22
-11 -3 -26 -17 -33 -32 -9 -18 -19 -26 -28 -23 -8 3 -14 3 -14 0 0 -13 22 -44
30 -44 14 0 50 -37 42 -44 -3 -3 6 -6 20 -6 14 0 38 11 54 25 16 14 23 25 16
25 -9 0 -8 7 5 25 14 20 25 25 50 22 17 -1 30 0 27 4 -7 12 34 17 45 6 8 -8
11 -8 11 1 0 7 5 12 11 12 21 0 38 33 28 52 -7 13 -6 18 3 18 7 0 20 5 28 10
13 9 13 11 1 19 -10 6 -3 9 22 8 20 0 35 -3 34 -6 -3 -11 28 -51 39 -51 23 0
36 27 24 49 -8 16 -8 21 2 22 7 0 4 5 -7 10 l-20 9 20 -3 c13 -1 20 -10 21
-25 1 -12 9 -31 19 -42 10 -11 13 -20 7 -20 -6 0 -13 6 -15 13 -4 8 -8 9 -14
1 -4 -6 -16 -15 -27 -21 -17 -9 -16 -12 14 -33 l31 -22 22 20 c22 19 22 19 41
1 11 -11 21 -29 23 -41 5 -30 12 -35 23 -18 9 13 10 13 11 0 1 -8 1 -19 0 -23
-1 -5 3 -5 10 -2 6 4 17 -2 25 -13 8 -12 32 -31 54 -43 22 -13 40 -26 40 -30
0 -4 17 -13 38 -19 20 -7 51 -28 67 -46 23 -27 38 -35 67 -36 21 -1 35 -5 32
-10 -3 -4 2 -8 11 -8 9 0 14 -4 11 -9 -4 -5 8 -12 26 -16 18 -4 57 -20 86 -36
29 -16 64 -31 78 -33 13 -3 38 -12 55 -20 17 -9 35 -14 39 -11 4 3 13 -2 20
-10 7 -8 22 -15 33 -15 20 0 107 -37 117 -50 3 -3 21 -13 40 -22 52 -24 151
-119 153 -145 1 -13 6 -23 11 -23 6 0 4 -6 -3 -12 -9 -9 -15 -9 -17 -2 -3 6
-18 8 -37 5 -31 -4 -31 -5 -7 -11 22 -5 17 -9 -35 -27 -33 -11 -69 -24 -80
-28 -16 -6 -17 -5 -5 4 9 7 10 11 3 11 -6 0 -15 -5 -19 -11 -4 -6 -19 -9 -38
-5 -22 4 -27 3 -16 -4 12 -8 10 -10 -10 -10 -15 0 -31 -5 -37 -11 -13 -13 -36
-3 -28 12 8 12 -2 11 -28 -2 -18 -9 -20 -9 -9 2 6 7 12 17 12 23 0 5 -11 -4
-25 -20 -14 -16 -25 -33 -25 -38 0 -5 -6 -3 -14 3 -8 7 -25 10 -38 8 -12 -2
-17 -2 -10 0 7 3 9 9 6 15 -5 7 3 9 22 5 16 -3 23 -4 16 -1 -6 3 -10 9 -7 14
3 4 -5 6 -17 2 -13 -3 -19 -1 -15 5 5 7 -1 9 -15 6 -19 -4 -20 -3 -8 7 13 10
12 11 -5 7 -11 -3 -28 -8 -37 -12 -14 -5 -18 -2 -18 14 0 18 -6 21 -37 21 -21
0 -33 4 -28 8 14 10 17 32 4 32 -6 0 -19 -5 -29 -10 -16 -8 -19 -7 -17 10 1
11 8 20 17 21 11 0 10 2 -3 8 -10 4 -18 11 -17 16 1 5 -3 11 -9 13 -6 2 -11
-3 -11 -12 0 -8 -4 -18 -10 -21 -6 -3 -7 1 -4 9 4 10 1 16 -7 16 -11 0 -11 3
1 10 12 8 12 10 -5 10 -17 0 -17 2 -5 10 12 8 9 10 -12 10 -34 0 -34 4 -5 33
l22 22 -23 3 c-31 5 -48 -16 -58 -73 -13 -80 -1 -253 16 -225 4 7 13 9 19 6
13 -8 -4 -29 -29 -38 -11 -3 -6 -9 15 -21 17 -9 27 -16 22 -17 -4 0 0 -16 8
-36 20 -48 20 -47 -15 -41 -22 5 -28 3 -24 -8 3 -7 11 -12 17 -9 7 2 17 0 22
-4 15 -10 49 -66 36 -58 -6 4 -11 2 -11 -3 0 -6 4 -11 8 -11 13 0 10 -30 -2
-30 -6 -1 3 -7 19 -15 17 -7 24 -14 16 -14 -10 -1 -11 -4 -2 -14 15 -19 3 -28
-28 -20 -15 3 -22 2 -18 -3 5 -5 13 -10 18 -10 5 -1 13 -2 18 -3 5 0 11 -8 15
-16 4 -12 0 -14 -22 -11 -26 5 -26 5 -7 -10 18 -13 30 -63 15 -65 -97 -12
-108 -7 -86 45 8 20 13 43 10 51 -4 8 -1 15 5 15 6 0 11 5 11 10 0 6 -7 10
-15 10 -8 0 -15 7 -15 16 0 14 3 14 15 4 12 -10 15 -10 15 4 0 9 6 16 12 16 7
0 2 7 -10 16 -12 8 -22 20 -22 26 0 6 -7 18 -15 27 -9 9 -29 35 -46 59 -16 23
-34 40 -39 37 -6 -3 -7 1 -4 10 5 11 2 14 -9 9 -12 -4 -18 2 -23 20 -3 14 -10
26 -15 26 -5 0 -9 9 -9 21 0 11 -4 18 -9 14 -14 -8 -64 42 -58 59 3 8 -1 17
-9 20 -9 3 -13 10 -9 15 3 6 -1 13 -8 18 -18 11 -98 119 -101 136 -1 7 -12 26
-24 41 -12 16 -19 32 -16 37 9 15 -17 79 -32 79 -51 0 60 -252 157 -354 60
-65 108 -129 103 -138 -3 -4 -1 -8 5 -8 5 0 12 -13 16 -30 4 -16 10 -30 14
-30 4 0 8 -47 8 -105 0 -58 -4 -105 -9 -105 -4 0 -8 8 -8 18 0 34 -14 34 -26
0 -6 -18 -15 -32 -20 -30 -9 2 -10 10 -13 62 -2 41 -17 3 -25 -63 -6 -52 -55
-173 -76 -187 -4 -3 -6 -13 -4 -23 1 -11 -3 -17 -14 -15 -9 2 -25 -11 -36 -29
-12 -17 -32 -38 -45 -45 -14 -7 -37 -25 -53 -40 -15 -15 -43 -34 -63 -44 -19
-9 -32 -20 -29 -25 6 -11 -37 -29 -50 -22 -4 3 -11 1 -15 -5 -9 -14 -162 -94
-169 -87 -3 3 -12 -1 -21 -9 -20 -18 -88 -36 -107 -29 -20 8 -46 -16 -39 -37
4 -13 -1 -19 -20 -22 -14 -3 -25 -2 -25 3 0 4 10 10 23 12 12 3 4 4 -18 2 -53
-4 -83 -14 -89 -30 -3 -8 -13 -11 -24 -8 -14 3 -21 -2 -25 -18 -5 -18 -11 -21
-35 -16 -26 5 -29 4 -25 -13 5 -20 -3 -24 -40 -20 -10 1 -16 -4 -15 -12 2 -8
-6 -12 -22 -10 -19 2 -22 0 -12 -10 23 -23 14 -41 -15 -34 -26 6 -27 5 -9 -8
23 -19 11 -39 -20 -33 -16 3 -24 0 -24 -10 0 -7 -7 -16 -15 -19 -28 -11 -15
-24 23 -24 27 0 33 -3 22 -10 -8 -5 -25 -10 -37 -10 -13 0 -23 -4 -23 -10 0
-5 7 -10 15 -10 9 0 12 -6 9 -15 -4 -9 0 -15 9 -15 25 0 32 -22 11 -37 -17
-12 -15 -13 13 -7 26 5 31 3 29 -11 -1 -10 -11 -24 -21 -31 -18 -13 -18 -14 3
-14 26 0 29 -15 6 -24 -23 -9 -56 3 -48 16 4 7 2 8 -4 4 -31 -19 -141 149
-143 218 -1 60 19 147 39 170 9 11 24 28 32 38 8 10 26 29 39 41 13 12 34 32
46 45 12 12 30 22 39 22 9 0 15 5 14 12 -3 11 24 31 164 118 178 111 247 241
215 403 -3 15 -1 27 4 27 20 0 -42 98 -90 141 -42 38 -51 52 -51 80 0 26 -3
30 -10 19 -9 -13 -13 -11 -30 10 -11 14 -20 30 -20 36 0 6 -9 19 -20 29 -11
10 -20 27 -20 37 0 11 -4 16 -10 13 -5 -3 -7 0 -4 8 3 8 1 18 -4 21 -5 3 -8
18 -6 33 2 16 1 20 -2 11 -3 -10 -11 -15 -20 -11 -7 3 -11 9 -8 15 3 5 -2 15
-12 23 -15 10 -16 16 -6 28 10 11 9 17 -5 28 -17 13 -17 13 -3 -6 14 -19 14
-19 -3 -6 -10 8 -16 20 -13 28 3 7 1 13 -5 13 -23 0 -41 72 -35 138 12 132 47
225 107 292 17 19 28 29 24 21 -6 -9 -4 -12 4 -7 6 4 9 12 5 17 -3 6 6 21 21
35 15 14 24 28 20 32 -4 4 -10 1 -12 -5 -5 -15 -23 -17 -23 -4 0 5 9 13 20 16
11 3 20 12 20 20 0 16 57 47 62 34 4 -11 51 13 49 26 -2 5 6 12 16 16 15 6 15
8 2 8 -9 1 -22 -6 -29 -14 -7 -8 -17 -15 -23 -15 -19 0 44 58 70 64 13 4 21
11 18 16 -4 6 7 13 24 16 17 4 28 11 25 16 -4 5 8 3 24 -6 27 -14 32 -14 46
-1 8 8 21 15 29 15 8 0 28 7 43 15 16 8 29 15 29 15 1 0 1 -9 1 -20z m55 1
c-20 -18 -21 -20 -4 -24 14 -4 13 -5 -4 -6 -13 0 -23 3 -23 8 0 13 29 41 42
41 6 0 1 -9 -11 -19z m2862 -18 c-7 -2 -19 -2 -25 0 -7 3 -2 5 12 5 14 0 19
-2 13 -5z m-18 -41 c-3 -3 -11 0 -18 7 -9 10 -8 11 6 5 10 -3 15 -9 12 -12z
m-2795 4 c0 -3 -4 -8 -10 -11 -5 -3 -10 -1 -10 4 0 6 5 11 10 11 6 0 10 -2 10
-4z m-33 -46 c1 -11 -3 -20 -8 -20 -6 0 -7 5 -4 10 3 6 1 10 -5 10 -6 0 -8 5
-5 10 10 16 21 11 22 -10z m1228 0 c3 -5 1 -10 -4 -10 -6 0 -11 5 -11 10 0 6
2 10 4 10 3 0 8 -4 11 -10z m-1295 -30 c0 -5 -8 -10 -17 -10 -15 0 -16 2 -3
10 19 12 20 12 20 0z m-112 -27 c16 -16 16 -16 0 -10 -12 4 -21 0 -28 -14 -6
-11 -15 -17 -21 -14 -15 10 -10 23 11 30 11 4 18 11 15 16 -10 15 5 10 23 -8z
m49 -59 c-3 -3 -12 -4 -19 -1 -8 3 -5 6 6 6 11 1 17 -2 13 -5z m1169 -36 l29
-33 -32 29 c-18 17 -33 31 -33 33 0 8 8 1 36 -29z m2089 12 c3 -5 1 -10 -4
-10 -6 0 -11 5 -11 10 0 6 2 10 4 10 3 0 8 -4 11 -10z m-32 -30 c-5 -19 -23
-29 -23 -12 0 7 20 32 26 32 1 0 0 -9 -3 -20z m177 -22 c0 -13 -23 -5 -28 10
-2 7 2 10 12 6 9 -3 16 -11 16 -16z m-300 -8 c0 -4 -9 -10 -20 -13 -11 -3 -18
-1 -14 4 3 5 0 9 -6 9 -6 0 -9 4 -6 9 7 10 46 3 46 -9z m-220 -5 c0 -8 -4 -15
-10 -15 -5 0 -7 7 -4 15 4 8 8 15 10 15 2 0 4 -7 4 -15z m640 -115 c0 -5 -5
-10 -11 -10 -5 0 -7 5 -4 10 3 6 8 10 11 10 2 0 4 -4 4 -10z m5 -40 c3 -5 1
-10 -4 -10 -6 0 -11 5 -11 10 0 6 2 10 4 10 3 0 8 -4 11 -10z m-2130 -24 c21
-8 41 -19 43 -25 2 -6 11 -11 19 -11 14 0 14 3 -2 20 -21 24 -14 27 9 4 25
-25 19 -34 -40 -60 -54 -24 -56 -24 -85 -7 -21 12 -29 24 -25 36 2 11 -2 21
-11 24 -12 5 -11 9 8 19 30 17 35 17 84 0z m176 -128 c5 -7 9 -20 9 -29 0 -15
-6 -16 -42 -7 -48 10 -61 18 -32 18 17 1 17 3 -5 21 -17 14 -26 16 -31 8 -6
-8 -9 -8 -14 0 -4 6 -5 15 -2 20 8 12 107 -14 117 -31z m73 -84 c20 -8 21 -20
2 -27 -8 -3 -16 2 -19 14 -6 21 -5 22 17 13z m436 -120 c0 -2 -7 -4 -15 -4 -8
0 -15 4 -15 10 0 5 7 7 15 4 8 -4 15 -8 15 -10z m137 0 c-3 -3 -12 -4 -19 -1
-8 3 -5 6 6 6 11 1 17 -2 13 -5z m-574 -26 c4 -10 7 -10 18 0 15 13 169 17
169 4 0 -5 42 -14 93 -21 50 -7 103 -18 117 -25 14 -7 50 -26 81 -43 l57 -29
-9 28 c-8 28 -7 28 39 30 56 1 81 -1 112 -12 3 -1 -6 -6 -20 -11 -23 -8 -23
-8 5 -5 17 3 41 -2 55 -9 27 -16 54 -20 31 -6 -8 5 4 7 33 4 31 -4 46 -2 46 6
0 6 4 11 10 11 5 0 9 -3 9 -7 -3 -20 3 -23 21 -13 14 7 20 7 20 0 0 -5 5 -10
11 -10 6 0 19 -11 30 -24 13 -17 33 -25 69 -30 58 -8 82 -15 76 -25 -2 -3 9
-6 25 -7 34 -1 82 -31 76 -47 -2 -7 -13 -12 -24 -11 -12 0 -20 -6 -19 -14 1
-8 -6 -17 -14 -19 -13 -4 -13 -3 0 7 13 10 13 11 0 7 -9 -2 -15 -15 -15 -33 0
-25 4 -29 35 -34 51 -9 57 -15 52 -51 -4 -28 -7 -31 -35 -25 -16 3 -38 6 -48
6 -9 0 -24 6 -31 13 -16 15 -48 18 -48 5 0 -6 -11 -8 -25 -6 -14 3 -25 2 -25
-2 0 -8 -80 -35 -94 -31 -4 1 -14 -3 -21 -9 -10 -8 -20 -8 -37 1 -20 11 -22
10 -10 -3 10 -13 10 -17 -2 -21 -8 -3 -17 -1 -19 6 -3 9 -14 9 -50 0 -26 -7
-55 -13 -65 -13 -10 0 -26 6 -35 13 -14 10 -15 18 -8 44 8 28 6 35 -10 47 -12
8 -16 17 -11 20 6 3 9 17 7 31 -2 19 2 25 19 26 11 0 16 3 9 5 -7 3 -10 18 -6
39 6 36 -12 65 -40 65 -8 0 -22 9 -32 20 -10 11 -23 20 -29 20 -6 0 -4 -6 5
-13 22 -17 32 -53 30 -111 -2 -65 -69 -183 -109 -193 -15 -3 -34 -14 -42 -23
-22 -25 -75 -48 -125 -56 -41 -6 -44 -5 -40 15 3 18 1 19 -16 8 -10 -6 -17
-17 -15 -24 3 -6 -2 -14 -10 -17 -26 -10 -94 -7 -94 5 0 5 -10 3 -22 -5 -12
-9 -31 -16 -41 -16 -14 0 -17 5 -11 23 6 21 6 21 -13 5 -29 -26 -117 -25 -140
2 -19 21 -39 28 -27 9 5 -9 -1 -10 -21 -5 -35 9 -55 29 -55 56 0 15 -6 20 -22
19 -38 -3 -59 1 -54 10 3 5 -4 11 -15 14 -13 4 -19 12 -17 24 1 10 -10 32 -26
50 -43 48 -53 74 -44 108 4 16 4 32 0 35 -12 8 -8 40 6 49 8 5 13 11 13 15 -5
32 0 37 37 36 20 -1 40 -1 45 0 4 2 10 3 15 4 4 1 16 7 27 13 26 16 10 16 -32
1 -42 -15 -53 -4 -22 22 18 15 33 19 57 15 23 -4 32 -2 30 6 -3 14 131 66 174
68 14 1 28 -5 31 -11z m517 2 c0 -5 -4 -10 -10 -10 -5 0 -10 5 -10 10 0 6 5
10 10 10 6 0 10 -4 10 -10z m185 -4 c18 -13 18 -14 -8 -9 -15 3 -27 9 -27 14
0 13 13 11 35 -5z m-285 -16 c0 -5 -4 -10 -10 -10 -5 0 -10 5 -10 10 0 6 5 10
10 10 6 0 10 -4 10 -10z m165 0 c3 -6 -1 -7 -9 -4 -18 7 -21 14 -7 14 6 0 13
-4 16 -10z m180 0 c3 -6 -1 -7 -9 -4 -18 7 -21 14 -7 14 6 0 13 -4 16 -10z
m545 3 c0 -5 -5 -15 -10 -23 -8 -12 -10 -11 -10 8 0 12 5 22 10 22 6 0 10 -3
10 -7z m-660 -13 c0 -5 -8 -10 -17 -10 -15 0 -16 2 -3 10 19 12 20 12 20 0z
m264 -39 c4 -5 -3 -7 -14 -4 -23 6 -26 13 -6 13 8 0 17 -4 20 -9z m1978 -16
c9 9 63 -65 88 -120 62 -135 62 -168 12 -475 -4 -25 -5 -61 -2 -80 4 -24 1
-39 -10 -47 -10 -9 -11 -12 -2 -13 6 0 12 -5 12 -11 0 -6 -7 -8 -17 -5 -9 4
-19 2 -22 -3 -8 -12 -16 -6 -59 41 -28 30 -36 50 -47 113 -8 43 -19 83 -24 88
-6 6 -11 20 -11 31 -1 29 -52 141 -78 171 -12 14 -22 32 -22 40 0 8 -8 15 -17
15 -10 0 -14 4 -8 8 15 11 17 32 3 32 -9 0 -9 3 0 12 7 7 12 20 12 30 0 10 4
18 10 18 5 0 7 7 4 15 -4 9 2 18 17 24 13 5 18 10 12 10 -7 1 -13 6 -13 12 0
5 5 7 10 4 6 -3 10 1 10 10 0 8 7 18 16 22 8 3 13 12 10 19 -3 8 -2 13 2 13
20 -3 33 2 27 11 -4 6 1 7 11 3 12 -4 15 -3 10 5 -4 7 -1 12 9 12 9 0 13 5 9
11 -3 6 5 4 18 -5 14 -9 27 -14 30 -11z m-5068 -150 c8 -8 20 -40 26 -70 6
-30 15 -57 19 -60 5 -2 6 -17 3 -31 -4 -24 -2 -26 17 -21 14 3 24 -1 31 -11 9
-16 9 -16 10 1 0 21 16 23 24 2 3 -8 14 -15 25 -15 20 0 38 -42 21 -48 -6 -2
-10 -9 -10 -16 0 -20 -69 -86 -89 -86 -10 0 -24 -7 -31 -15 -7 -8 -21 -15 -31
-15 -11 0 -19 -4 -19 -8 0 -11 -46 -33 -53 -26 -3 3 4 25 14 50 11 24 22 73
24 109 2 36 6 69 9 74 3 4 1 25 -5 47 -5 21 -11 65 -15 97 -6 59 2 70 30 42z
m3876 0 c0 -2 -9 -9 -20 -15 -16 -9 -18 -8 -14 5 5 13 34 22 34 10z m346 -51
c-3 -9 -6 -20 -6 -25 0 -5 -14 -9 -31 -9 -24 0 -30 3 -25 16 3 9 6 20 6 25 0
5 14 9 31 9 24 0 30 -3 25 -16z m-820 -9 c25 -7 39 -46 21 -57 -17 -11 -39
-10 -32 2 3 6 -1 10 -9 10 -9 0 -16 5 -16 11 0 5 6 7 13 3 6 -4 1 5 -13 21
-27 30 -29 29 36 10z m-1723 -9 c7 -19 -18 -40 -38 -32 -18 7 -20 32 -2 39 22
10 35 7 40 -7z m-398 -46 c3 -5 1 -10 -4 -10 -6 0 -11 5 -11 10 0 6 2 10 4 10
3 0 8 -4 11 -10z m2705 -22 c0 -28 -13 -57 -27 -62 -10 -4 -13 -2 -10 8 5 12
-1 13 -29 9 -29 -5 -34 -3 -34 15 0 15 10 23 38 30 52 14 62 14 62 0z m-113
-4 c-3 -3 -12 -4 -19 -1 -8 3 -5 6 6 6 11 1 17 -2 13 -5z m-122 -14 c-3 -5
-13 -10 -21 -10 -8 0 -12 5 -9 10 3 6 13 10 21 10 8 0 12 -4 9 -10z m442 -5
c0 -16 -22 -21 -32 -6 -3 5 3 12 12 14 10 3 18 5 19 6 0 0 1 -6 1 -14z m-2467
-4 c0 -8 -61 -22 -69 -15 -1 1 0 7 4 13 8 13 65 15 65 2z m2068 -28 c2 -7 -3
-13 -12 -13 -9 0 -16 6 -16 13 0 8 -3 9 -8 1 -4 -6 -17 -13 -29 -16 -18 -5
-23 -2 -23 14 0 16 6 19 42 16 23 -2 43 -9 46 -15z m47 -12 c3 -5 1 -12 -5
-16 -5 -3 -10 1 -10 9 0 18 6 21 15 7z m-1051 -38 c-11 -47 -22 -52 -101 -44
-14 1 35 56 57 64 38 14 51 8 44 -20z m171 7 c-3 -5 -11 -10 -16 -10 -6 0 -7
5 -4 10 3 6 11 10 16 10 6 0 7 -4 4 -10z m1255 -6 c0 -2 -7 -4 -15 -4 -8 0
-15 4 -15 10 0 5 7 7 15 4 8 -4 15 -8 15 -10z m-1030 -24 c0 -5 9 -10 21 -10
11 0 17 5 14 10 -7 11 19 13 55 3 l25 -7 -25 -6 c-14 -4 10 -7 52 -6 59 0 81
-3 96 -17 10 -9 21 -14 25 -11 3 4 18 3 34 0 18 -5 23 -10 15 -15 -8 -5 10
-13 44 -21 35 -9 66 -24 81 -39 27 -28 62 -91 70 -125 2 -11 7 -30 10 -42 4
-17 -1 -22 -27 -28 -18 -3 -56 -6 -84 -6 -45 0 -56 5 -90 36 -29 27 -36 38
-26 44 7 5 22 7 32 5 10 -2 18 0 18 6 0 5 -15 9 -34 9 -36 0 -62 21 -53 44 3
8 -1 20 -9 26 -8 7 -14 18 -14 25 0 7 -9 23 -19 36 -21 26 -23 24 -35 -33 -5
-23 -12 -27 -56 -33 -55 -8 -58 -25 -4 -25 24 0 34 -5 34 -15 0 -8 -8 -16 -17
-16 -16 -1 -34 -3 -71 -7 -7 -1 -10 -7 -7 -12 4 -6 -5 -9 -22 -8 -48 3 -97 -2
-113 -12 -29 -18 -1 -20 100 -5 57 9 106 12 110 8 4 -4 10 -24 14 -44 8 -44
-5 -56 -89 -89 -33 -14 -64 -28 -70 -32 -45 -36 -137 -90 -168 -99 -21 -5 -35
-14 -32 -19 9 -14 -121 -70 -163 -70 -27 0 -33 3 -22 10 11 7 0 10 -37 10 -43
0 -53 3 -54 18 0 10 -3 12 -6 5 -7 -20 -19 -15 -32 13 -14 31 -7 44 24 44 13
0 26 3 29 8 2 4 -18 8 -46 8 -27 0 -53 5 -56 11 -4 6 -18 14 -32 18 -22 7 -22
5 9 -20 32 -27 32 -29 12 -37 -13 -5 -21 -16 -21 -32 0 -24 -21 -36 -67 -36
-12 0 -23 -4 -25 -9 -2 -5 -18 -3 -38 4 -126 48 -155 60 -158 67 -2 4 -15 8
-28 8 -13 0 -24 4 -24 10 0 5 -6 7 -13 5 -7 -3 -37 11 -67 30 -30 19 -57 35
-61 35 -4 0 -28 10 -55 22 -27 11 -50 19 -50 17 -1 -2 -11 5 -23 15 -24 21
-30 93 -9 114 8 8 7 22 -6 56 -27 71 -4 136 44 123 11 -3 18 -1 14 4 -8 14 7
11 91 -16 43 -14 94 -25 114 -25 20 1 72 -2 116 -5 44 -3 94 -6 110 -7 17 0
24 -3 17 -5 -7 -3 15 -19 50 -35 64 -32 134 -43 171 -28 14 5 16 9 7 10 -8 0
2 10 23 21 23 12 46 17 59 13 13 -4 18 -2 14 4 -8 13 29 26 45 16 7 -4 9 -3 6
3 -9 15 57 45 101 46 19 1 30 3 23 5 -17 6 -2 22 20 22 12 0 28 9 38 21 13 17
21 19 43 10 23 -9 25 -7 21 9 -4 17 0 19 31 18 20 -1 39 2 43 5 10 11 33 8 33
-3z m620 -11 c0 -14 -17 -10 -23 5 -4 10 -1 13 9 9 7 -3 14 -9 14 -14z m200 5
c0 -3 -5 -15 -11 -26 -8 -15 -8 -19 0 -14 6 4 11 2 11 -4 0 -6 -8 -10 -17 -8
-20 4 -24 26 -10 46 10 12 27 17 27 6z m-2890 -33 c0 -10 -9 -29 -20 -42 l-20
-24 6 30 c3 17 6 36 6 43 2 20 28 14 28 -7z m798 2 c18 -3 34 -9 37 -13 5 -9
-35 -50 -112 -115 -26 -22 -64 -57 -85 -78 -30 -30 -43 -36 -63 -31 -14 3 -25
10 -25 16 0 5 10 7 23 4 12 -3 16 -3 10 0 -18 8 -16 41 3 48 14 5 12 10 -10
27 l-26 21 22 28 c13 16 28 29 34 29 7 1 22 10 35 21 20 16 21 19 7 20 -9 0
-20 5 -23 10 -4 6 -3 10 2 9 4 -1 15 1 23 4 27 11 64 15 90 10 14 -2 40 -7 58
-10z m1912 -13 c0 -4 -9 -10 -20 -13 -15 -4 -20 0 -20 13 0 13 5 17 20 13 11
-3 20 -9 20 -13z m116 5 c18 -13 18 -14 -4 -8 -12 3 -25 9 -28 14 -8 14 10 11
32 -6z m-1324 -37 c-6 -6 -19 -7 -29 -4 -16 7 -16 9 7 21 26 14 41 2 22 -17z
m-1241 -30 c6 -11 6 -18 0 -18 -5 0 -12 -11 -15 -25 -5 -20 -13 -25 -37 -25
-27 0 -29 -2 -15 -15 8 -8 23 -16 33 -16 17 -1 17 -2 1 -6 -21 -5 -23 -19 -5
-26 8 -4 9 -8 1 -14 -12 -9 -28 -44 -25 -57 1 -4 -1 -17 -5 -28 -4 -15 -9 -17
-17 -9 -8 8 -8 14 -2 19 6 4 10 21 10 39 l0 32 -21 -22 c-17 -18 -18 -24 -8
-30 11 -6 12 -13 3 -30 -7 -12 -17 -25 -23 -29 -7 -5 -4 -8 7 -8 9 0 17 -2 17
-4 0 -2 3 -12 7 -22 5 -14 2 -16 -18 -11 -22 6 -23 5 -6 -8 13 -9 17 -20 12
-35 -6 -20 -13 -22 -68 -18 -40 2 -62 -1 -64 -9 -2 -6 6 -13 19 -15 13 -2 22
-9 20 -17 -3 -12 0 -12 12 -2 18 15 40 5 32 -15 -3 -8 -1 -14 4 -14 6 0 10 -8
10 -17 0 -14 -2 -15 -9 -4 -5 7 -14 10 -20 6 -9 -5 -9 -10 -1 -20 8 -10 5 -14
-15 -19 -14 -4 -35 -5 -48 -3 -12 2 -17 2 -10 0 15 -5 26 -39 18 -53 -3 -5 -2
-10 3 -10 5 0 12 -13 14 -30 3 -21 0 -30 -10 -30 -8 0 -12 -6 -8 -15 4 -11 -2
-15 -20 -15 -14 0 -23 -4 -20 -9 3 -5 15 -7 26 -4 14 4 20 0 20 -11 0 -9 -4
-16 -9 -16 -15 0 -6 -32 12 -45 9 -7 14 -15 10 -18 -3 -4 -1 -7 6 -7 8 0 11
-8 8 -20 -3 -11 -1 -20 5 -20 6 0 8 -6 5 -14 -6 -16 13 -66 26 -66 13 0 8 -40
-5 -40 -8 -1 -6 -6 5 -14 9 -7 17 -18 17 -24 0 -5 7 -12 15 -16 8 -3 15 -12
15 -21 0 -8 9 -15 20 -15 23 0 46 -36 27 -43 -6 -3 -3 -6 7 -6 22 -1 56 -28
56 -45 0 -11 20 -32 86 -93 98 -89 132 -123 126 -123 -4 0 8 -9 27 -21 18 -11
35 -29 38 -39 3 -11 13 -22 24 -25 18 -6 87 -85 73 -85 -3 0 6 -10 22 -22 44
-34 54 -45 54 -61 0 -8 7 -20 15 -27 10 -8 13 -21 9 -33 -3 -11 -2 -17 3 -14
15 9 32 -7 37 -37 3 -16 12 -36 21 -46 18 -20 20 -40 3 -40 -7 0 -5 -5 5 -12
23 -18 67 -111 67 -141 0 -16 -7 -27 -17 -30 -14 -4 -12 -5 5 -6 18 -1 22 -7
22 -37 0 -29 -3 -35 -18 -32 -11 2 -20 0 -20 -4 -5 -21 -1 -27 13 -22 10 4 15
0 15 -15 0 -16 -6 -21 -25 -21 -14 0 -25 -4 -25 -10 0 -5 7 -10 15 -10 8 0 15
-7 15 -15 0 -11 -11 -15 -35 -15 -33 0 -35 -2 -25 -20 9 -16 8 -22 -5 -26 -9
-4 -15 -18 -15 -36 0 -17 -4 -27 -10 -23 -5 3 -10 -1 -10 -10 0 -9 4 -14 8
-11 4 2 8 -4 8 -15 0 -21 -16 -27 -16 -6 -1 6 -9 -10 -19 -38 -10 -27 -26 -68
-36 -90 -10 -22 -19 -46 -21 -54 -1 -7 -7 -18 -13 -24 -18 -18 -14 3 20 99 16
49 31 95 31 102 1 6 5 12 9 12 10 0 21 73 23 153 0 37 4 67 9 67 20 0 1 100
-31 158 -14 25 -25 69 -15 58 8 -7 33 13 33 26 0 6 -6 6 -14 -1 -7 -6 -20 -9
-28 -6 -15 6 -78 106 -78 124 0 6 -9 16 -20 23 -11 7 -20 16 -20 19 0 4 -31
38 -70 76 -38 39 -70 75 -70 80 0 5 -10 15 -22 20 -13 6 -32 18 -43 27 -11 9
-54 41 -95 72 -41 30 -83 62 -93 70 -9 8 -19 14 -22 14 -3 0 -18 13 -35 28
-16 16 -50 39 -75 52 -25 13 -41 26 -36 29 6 4 6 12 2 20 -5 7 -13 11 -19 7
-6 -3 -19 7 -28 24 -10 16 -26 33 -36 36 -10 3 -18 12 -18 20 0 8 -4 14 -10
14 -5 0 -10 6 -10 13 0 6 -21 27 -45 46 -25 18 -45 37 -45 42 0 5 -6 9 -12 9
-15 0 -78 57 -78 69 0 4 -14 22 -30 39 -16 18 -30 40 -30 49 0 10 -7 27 -15
37 -17 23 -20 40 -4 31 11 -7 38 22 39 42 0 7 -6 10 -14 7 -17 -7 -36 24 -28
46 3 8 14 23 24 32 13 11 21 33 23 62 3 50 19 72 59 82 15 3 25 8 22 11 -5 6
31 43 42 43 5 0 17 7 28 16 10 8 13 13 7 9 -7 -3 -13 -2 -13 4 0 12 25 38 51
52 11 5 17 14 15 18 -3 4 14 14 37 21 73 22 74 22 48 29 -24 6 -24 6 14 49 21
23 48 42 59 43 12 0 15 3 9 6 -7 2 -13 9 -13 15 0 6 7 7 16 4 8 -3 13 -2 9 3
-3 5 1 12 7 15 10 5 10 7 0 12 -9 4 -4 15 19 35 18 16 29 29 24 29 -4 0 0 9
10 20 10 11 15 26 11 36 -4 10 -2 20 4 24 18 11 101 -12 111 -32z m2664 32 c3
-5 1 -10 -4 -10 -6 0 -11 5 -11 10 0 6 2 10 4 10 3 0 8 -4 11 -10z m-2640 -10
c3 -5 2 -10 -4 -10 -5 0 -13 5 -16 10 -3 6 -2 10 4 10 5 0 13 -4 16 -10z
m1100 -60 c3 -6 -1 -7 -9 -4 -18 7 -21 14 -7 14 6 0 13 -4 16 -10z m1522 -25
c-1 0 -13 -9 -26 -20 l-24 -20 18 32 c13 22 22 29 26 21 5 -7 7 -13 6 -13z
m498 -3 c28 -11 64 -26 80 -33 17 -7 33 -13 37 -13 18 -3 18 -16 0 -16 -21 0
-20 -2 9 -28 40 -35 35 -69 -13 -102 -30 -20 -31 -21 -8 -17 14 2 34 8 45 12
17 7 17 5 -5 -19 -23 -26 -29 -28 -85 -23 -33 3 -82 11 -110 19 -27 7 -95 13
-150 13 -82 0 -108 -4 -147 -23 -26 -12 -50 -22 -54 -22 -10 0 39 36 60 44 10
3 17 9 14 11 -3 3 -30 -6 -62 -20 -71 -31 -107 -32 -126 -2 -30 47 -18 117 22
117 11 0 18 7 18 18 0 10 5 23 12 30 7 7 -6 4 -27 -7 -42 -20 -102 -79 -123
-121 l-12 -25 6 25 c6 24 55 85 81 103 7 4 19 14 27 23 23 22 95 52 141 57 22
3 51 10 65 16 42 18 246 6 305 -17z m-3139 -9 c-10 -10 -19 5 -10 18 6 11 8
11 12 0 2 -7 1 -15 -2 -18z m541 -17 c4 -5 -7 -7 -25 -4 -19 3 -29 1 -24 -4 5
-5 19 -10 30 -11 31 -2 34 -21 11 -82 -22 -59 -25 -61 -52 -41 -10 8 -27 11
-39 8 -16 -4 -19 -2 -13 8 5 9 4 11 -4 6 -17 -11 -41 12 -41 39 0 13 10 29 23
38 12 8 32 24 45 35 22 20 73 25 89 8z m-891 -30 c0 -13 -6 -22 -12 -19 -5 2
-16 -8 -24 -22 -7 -14 -19 -25 -26 -25 -6 0 -14 -7 -18 -15 -3 -8 -10 -15 -16
-15 -7 0 -5 7 4 15 8 9 30 36 47 60 36 51 48 56 45 21z m-56 -5 c0 -5 -7 -12
-16 -15 -14 -5 -15 -4 -4 9 14 17 20 19 20 6z m3782 -95 c15 -29 18 -50 14
-83 -6 -51 -20 -77 -71 -128 -29 -28 -41 -34 -61 -29 -18 5 -34 0 -53 -14 -61
-45 -162 -55 -193 -20 -19 22 -19 23 -1 29 10 3 28 9 40 14 13 4 20 12 17 17
-5 7 -1 7 11 1 12 -7 26 -6 44 3 23 12 27 12 33 -4 4 -9 7 -11 7 -4 1 6 8 12
16 12 8 0 15 4 15 8 0 4 14 16 30 25 26 16 31 16 36 3 3 -8 1 -23 -5 -34 -14
-26 10 -24 39 4 11 10 29 27 39 37 45 43 46 137 2 193 -11 15 -21 31 -21 37 0
18 41 -27 62 -67z m-1241 -101 c5 -4 2 -16 -6 -29 -21 -32 -125 -74 -215 -86
-71 -10 -190 -4 -190 9 0 10 20 37 20 27 0 -5 8 -2 18 6 40 35 89 51 252 82
28 5 107 -1 121 -9z m509 -5 c19 -4 27 -8 18 -9 -9 0 -23 -3 -31 -6 -7 -3 -25
4 -38 15 -20 18 -21 21 -4 14 11 -3 36 -10 55 -14z m-2195 0 c3 -5 16 -10 28
-10 18 0 15 -4 -13 -19 -35 -18 -46 -41 -24 -48 6 -2 14 6 17 17 5 18 10 20
44 15 30 -5 35 -4 23 5 -12 9 -9 10 15 5 17 -3 36 -12 43 -19 16 -16 6 -43
-18 -49 -18 -4 -18 -3 -5 17 15 22 11 36 -7 36 -5 0 -7 -4 -3 -9 3 -5 1 -12
-5 -16 -5 -3 -10 -1 -10 5 0 8 -9 10 -26 6 -17 -5 -23 -3 -19 4 3 5 -1 10 -10
10 -24 0 -12 -24 13 -28 12 -2 22 -7 22 -12 0 -5 -13 -5 -30 0 -19 5 -30 5
-30 -1 0 -19 -33 -4 -41 17 -5 16 -2 28 12 43 11 12 17 21 13 21 -13 0 -54
-43 -54 -57 0 -16 -2 -16 -37 -1 -47 20 -75 49 -62 65 14 16 154 18 164 3z
m165 -36 c14 -6 45 -18 70 -25 34 -11 46 -20 48 -36 3 -22 1 -23 -79 -23 l-83
0 22 20 c28 26 28 43 0 64 -24 18 -19 17 22 0z m2153 -60 c16 -13 25 -24 21
-24 -4 0 -5 -3 -2 -6 4 -3 17 0 30 7 25 14 89 19 81 7 -2 -5 12 -18 32 -29 19
-12 40 -30 46 -41 10 -19 7 -19 -113 -16 -69 3 -133 10 -145 17 -26 13 -31 41
-8 41 21 0 19 5 -10 34 -14 14 -25 29 -25 35 0 17 63 0 93 -25z m-3533 11
c-20 -19 -86 -33 -76 -16 10 15 44 29 71 30 17 1 18 -1 5 -14z m832 -4 c-1 -7
7 -15 18 -18 11 -3 20 -10 20 -15 0 -6 18 -8 39 -6 22 2 37 0 35 -4 -3 -4 11
-7 31 -6 20 1 41 -4 47 -10 7 -7 19 -12 28 -12 8 -1 33 -24 54 -52 35 -45 88
-88 109 -88 4 0 6 12 5 28 -4 56 13 68 104 74 154 10 285 1 321 -21 25 -15 56
-21 137 -24 113 -6 139 -10 203 -32 55 -19 107 -19 135 1 32 22 76 15 80 -13
2 -13 8 -23 13 -23 6 0 7 -4 4 -10 -3 -5 -1 -10 4 -10 26 0 8 -30 -25 -40 -24
-8 -34 -17 -30 -26 3 -9 -7 -19 -29 -28 -20 -9 -35 -22 -35 -32 0 -12 3 -14
13 -6 7 6 22 9 34 6 11 -3 24 -1 27 5 9 14 53 14 61 1 3 -6 17 -7 31 -4 32 8
32 -13 -1 -28 -14 -6 -25 -16 -25 -23 0 -15 -160 -178 -168 -171 -3 3 -11 -3
-19 -14 -8 -11 -20 -20 -26 -20 -7 0 -3 7 7 15 11 8 15 15 8 15 -6 0 -19 -8
-29 -18 -27 -28 -47 -32 -88 -18 -43 15 -137 96 -180 156 -29 40 -57 71 -89
98 -9 7 -38 17 -66 24 -38 9 -50 16 -50 30 0 12 7 18 23 18 35 0 67 11 61 21
-3 5 22 9 55 9 49 0 65 -4 89 -25 17 -14 36 -25 44 -25 8 0 19 -5 26 -12 6 -6
15 -9 18 -5 10 10 -15 37 -29 31 -15 -5 -72 46 -60 55 28 21 -16 51 -76 51
-15 0 -33 6 -39 12 -10 10 -15 10 -22 -2 -7 -12 -3 -16 23 -21 l32 -6 -37 -2
c-21 0 -38 4 -38 9 0 6 -5 10 -11 10 -5 0 -8 -4 -5 -8 5 -8 -211 -25 -316 -26
-20 0 -36 -4 -35 -9 1 -5 -11 -14 -26 -19 -24 -8 -32 -6 -53 15 -13 13 -37 27
-53 30 -31 6 -109 2 -140 -8 -30 -9 -32 -52 -5 -101 13 -24 24 -49 24 -56 0
-12 34 -48 45 -48 2 0 2 7 -1 15 -4 8 -1 15 5 15 6 0 10 -5 9 -12 -2 -6 8 -17
22 -25 14 -7 19 -13 12 -13 -10 0 -10 -3 0 -14 7 -7 19 -11 27 -8 10 4 13 0 9
-15 -4 -13 1 -25 13 -34 11 -7 19 -22 19 -32 0 -10 4 -15 10 -12 13 8 68 -80
76 -121 4 -21 11 -31 19 -28 12 5 23 -4 58 -45 21 -26 42 -19 25 9 -7 11 -9
22 -5 26 9 9 30 -18 53 -66 41 -87 63 -129 90 -170 15 -25 28 -49 29 -53 0
-11 106 -107 130 -118 11 -5 35 -20 53 -33 18 -13 54 -27 82 -31 27 -4 54 -13
61 -21 13 -16 33 -19 24 -4 -3 6 1 10 9 10 9 0 16 -4 16 -9 0 -6 13 -6 33 -1
37 11 107 9 100 -2 -2 -5 1 -8 6 -8 6 0 11 4 11 8 0 5 28 17 63 27 63 19 162
81 208 132 23 25 45 56 133 190 28 42 64 68 52 38 -4 -12 -2 -13 14 -2 12 7
20 23 20 38 0 14 11 36 25 49 13 12 22 26 20 30 -3 4 2 13 10 20 13 11 15 8
15 -19 0 -17 4 -31 9 -31 5 0 37 37 72 83 63 81 114 137 125 137 4 0 -1 -11
-10 -25 -31 -47 29 -17 86 43 109 116 128 139 128 162 0 52 -33 68 -154 77
l-81 6 25 -21 25 -21 -35 10 c-45 13 -129 28 -200 35 -30 3 -60 10 -65 15 -6
4 -44 3 -84 -2 -54 -8 -76 -7 -87 2 -22 18 -17 29 13 29 27 0 27 10 0 14 -8 1
-27 11 -43 21 -16 11 -36 23 -44 27 -8 4 4 7 28 7 40 1 42 2 28 17 -9 8 -16
18 -16 21 0 4 3 3 7 0 3 -4 12 -2 19 4 8 6 35 11 61 10 27 -1 106 -3 176 -4
121 -2 128 -3 133 -23 3 -12 -2 -36 -10 -53 -16 -30 -16 -31 3 -31 21 0 113
67 147 107 19 22 24 23 42 12 16 -10 25 -10 44 -1 23 13 23 13 1 8 -13 -2 -23
-1 -23 4 0 11 64 19 68 9 2 -5 13 -4 25 3 16 8 22 8 25 -1 2 -6 11 -11 19 -11
9 0 13 3 10 7 -4 3 6 14 23 24 19 12 28 24 24 33 -4 10 2 17 20 22 32 8 49 -2
37 -23 -8 -16 31 -109 52 -124 5 -4 3 -9 -4 -11 -11 -4 -12 -9 -2 -26 10 -16
9 -21 -1 -25 -7 -3 -16 -20 -20 -38 -3 -18 -23 -52 -44 -77 -20 -25 -40 -50
-43 -55 -4 -5 -22 -12 -40 -16 -19 -4 -33 -13 -31 -20 1 -7 -2 -10 -7 -6 -9 5
-85 -56 -152 -124 -15 -14 -35 -33 -45 -42 -11 -8 -37 -35 -60 -60 -50 -53
-100 -99 -90 -81 7 11 4 11 -13 0 -12 -7 -21 -19 -21 -26 0 -7 -11 -23 -24
-35 -13 -12 -30 -35 -39 -52 -8 -16 -29 -42 -46 -57 -16 -15 -38 -42 -47 -60
-9 -18 -31 -45 -48 -60 -20 -18 -26 -28 -16 -28 9 0 0 -14 -24 -35 -21 -19
-36 -35 -33 -35 2 0 -7 -13 -22 -29 -14 -16 -29 -25 -32 -20 -7 11 -69 -49
-69 -67 0 -8 -6 -11 -15 -8 -9 4 -18 -1 -21 -11 -5 -13 -50 -39 -62 -36 -1 1
-16 -6 -33 -15 -27 -13 -58 -15 -208 -11 -97 3 -192 10 -212 16 -19 6 -53 27
-75 46 -21 19 -44 35 -50 35 -13 0 -94 85 -94 98 0 4 -13 22 -30 40 -16 18
-30 39 -30 46 0 8 -7 19 -15 26 -12 10 -13 15 -4 21 15 9 0 30 -79 118 -78 87
-385 391 -394 391 -5 0 -16 8 -26 18 -54 50 -84 75 -77 63 5 -9 4 -12 -3 -7
-7 4 -12 14 -12 22 0 8 -3 14 -7 14 -12 0 -53 64 -58 90 -2 12 -9 28 -16 36
-6 8 -8 14 -3 14 5 0 2 5 -6 10 -13 9 -13 10 0 10 12 0 12 2 2 8 -10 7 -8 19
9 58 23 51 26 58 28 74 0 6 9 10 19 10 12 0 18 9 20 26 1 14 5 30 8 35 8 14
40 5 36 -10z m2599 -21 c9 0 19 -7 23 -15 9 -25 -19 -17 -45 13 -13 15 -17 21
-9 15 8 -7 22 -13 31 -13z m579 -40 c0 -5 -2 -10 -4 -10 -3 0 -8 5 -11 10 -3
6 -1 10 4 10 6 0 11 -4 11 -10z m-2836 -6 c9 -3 13 -11 9 -17 -4 -7 0 -8 11
-4 12 5 16 3 13 -5 -2 -7 -16 -13 -30 -13 -14 1 -23 -3 -21 -7 3 -4 -2 -8 -10
-8 -24 0 -19 28 7 36 21 7 21 7 2 15 -11 4 -15 8 -8 8 6 1 18 -2 27 -5z m2271
-4 c-3 -5 -12 -10 -18 -10 -7 0 -6 4 3 10 19 12 23 12 15 0z m-2845 -20 c0 -5
-7 -10 -15 -10 -8 0 -15 5 -15 10 0 6 7 10 15 10 8 0 15 -4 15 -10z m-948 -88
c-31 -43 -74 -173 -98 -296 -3 -17 -8 -25 -12 -19 -4 6 -16 13 -27 17 -82 27
-112 137 -57 209 37 49 100 93 159 110 26 8 50 13 52 11 2 -1 -6 -16 -17 -32z
m63 -103 c-2 -12 -9 -27 -16 -35 -6 -8 -9 -25 -7 -39 3 -14 2 -25 -1 -25 -12
0 -8 -85 3 -92 7 -5 4 -8 -7 -8 -10 0 -16 -4 -12 -9 3 -5 1 -12 -5 -16 -5 -3
-10 -18 -10 -32 0 -40 -13 -18 -15 24 0 21 -5 50 -9 64 -12 40 27 161 56 175
13 6 24 12 25 13 1 0 0 -8 -2 -20z m1670 1 c-3 -5 1 -10 11 -10 9 0 30 -14 46
-30 l28 -30 -22 -35 c-27 -41 -29 -41 -178 7 -99 33 -144 58 -102 58 12 0 22
4 22 10 0 5 7 6 17 3 10 -4 14 -2 10 4 -9 14 46 3 55 -11 5 -7 8 -4 8 7 0 16
21 22 58 18 6 -1 20 3 30 8 22 13 25 13 17 1z m978 -52 c9 0 17 -4 17 -9 0 -6
-4 -7 -10 -4 -5 3 -10 1 -10 -5 0 -6 -8 -9 -17 -6 -10 3 -39 6 -65 7 -27 1
-48 6 -48 10 0 10 58 17 90 10 14 -2 33 -4 43 -3z m392 -19 c19 -7 19 -8 -2
-8 -13 -1 -23 -5 -23 -11 0 -8 -60 -30 -82 -30 -4 0 -6 13 -5 29 1 17 7 27 13
24 7 -2 15 0 19 6 6 11 38 7 80 -10z m-165 -20 c0 -24 4 -30 15 -25 8 3 15 1
15 -4 0 -6 -7 -10 -15 -10 -8 0 -15 -4 -15 -9 0 -11 -58 -32 -64 -23 -8 14 1
54 13 62 8 4 11 12 7 18 -4 6 2 8 16 4 14 -3 19 -2 14 6 -4 7 -2 12 3 12 6 0
11 -14 11 -31z m1049 7 c10 -12 8 -13 -9 -9 -25 7 -37 23 -17 23 8 0 20 -6 26
-14z m-41 -65 c7 -4 14 -18 15 -30 l1 -23 18 22 c15 18 20 19 39 9 22 -11 22
-12 -10 -25 -17 -7 -34 -13 -38 -13 -3 1 -9 -4 -12 -9 -3 -6 -18 -8 -33 -5
-15 3 -25 9 -22 14 3 5 -5 13 -18 18 l-23 10 23 0 c13 1 20 5 17 11 -4 6 -11
8 -16 5 -10 -7 -12 8 -2 18 9 10 45 8 61 -2z m-1218 -41 c-19 -13 -30 -13 -30
0 0 6 10 10 23 10 18 0 19 -2 7 -10z m113 -90 c-3 -14 -10 -29 -14 -34 -14
-15 -11 -26 7 -26 11 0 13 -6 9 -19 -3 -11 -1 -22 5 -26 7 -4 -2 -20 -24 -41
-20 -19 -36 -43 -36 -53 0 -12 -13 -22 -40 -31 -27 -9 -44 -22 -54 -44 -19
-41 -52 -61 -72 -45 -15 12 -49 5 -40 -10 3 -5 -1 -12 -10 -15 -9 -4 -14 -9
-10 -13 3 -3 -1 -15 -11 -25 -20 -22 -63 -24 -63 -3 0 21 -9 19 -32 -10 -17
-22 -72 -45 -108 -45 -13 0 -13 1 0 10 11 7 7 10 -18 10 -20 0 -35 6 -38 15
-8 20 -23 19 -46 -1 -10 -10 -35 -19 -57 -21 -35 -3 -43 1 -83 42 -35 35 -47
42 -51 30 -4 -8 -12 -15 -19 -15 -14 0 -65 57 -74 82 -3 10 -18 18 -36 20 -26
2 -33 9 -40 33 -4 16 -17 37 -29 46 -19 14 -22 29 -19 92 1 9 8 17 17 17 10 0
13 5 8 18 -4 9 -10 25 -12 35 -3 10 -15 17 -29 17 -27 0 -37 13 -29 39 6 21
43 18 52 -5 4 -11 10 -11 34 2 26 13 32 13 59 -1 19 -10 30 -23 30 -37 0 -19
4 -20 45 -15 38 6 49 3 66 -14 11 -11 18 -27 15 -36 -5 -13 2 -14 54 -8 51 6
63 4 88 -14 52 -36 77 -42 99 -21 11 10 33 21 50 24 25 6 36 2 57 -19 l26 -26
0 35 c0 29 5 38 30 51 38 20 70 19 86 -2 12 -17 13 -16 22 7 5 14 19 33 30 43
17 16 24 17 43 6 20 -10 25 -9 44 15 13 16 30 26 45 25 18 -1 20 -3 7 -6 -9
-2 -15 -8 -12 -13 9 -14 44 1 51 22 6 19 6 19 19 1 8 -10 11 -29 8 -43z m53
25 c1 -8 -2 -17 -7 -21 -5 -3 -9 7 -9 22 0 27 12 26 16 -1z m831 -5 c-4 -17
-2 -30 3 -30 6 0 10 7 10 15 0 8 5 16 10 16 14 2 22 5 43 14 10 4 31 5 47 2
16 -4 32 -2 35 3 3 6 12 10 18 10 8 0 8 -3 -1 -9 -10 -6 -6 -10 15 -15 15 -4
47 -29 71 -56 43 -48 43 -49 27 -74 -10 -14 -25 -26 -34 -26 -23 0 -25 -40 -3
-56 15 -12 13 -13 -14 -14 -31 0 -63 -24 -50 -37 3 -4 13 2 22 13 14 18 15 18
4 -4 -6 -13 -19 -22 -28 -21 -32 3 -34 -1 -11 -20 22 -18 23 -20 5 -27 -11 -4
-21 -2 -26 6 -5 8 -10 8 -14 2 -3 -6 -23 -13 -44 -17 -31 -5 -38 -10 -38 -28
1 -12 6 -28 13 -35 10 -10 9 -16 -5 -30 -25 -25 -70 -43 -77 -32 -10 17 -25
11 -25 -9 0 -26 -50 -61 -87 -61 -18 0 -23 -3 -15 -8 8 -6 -8 -18 -48 -36 -35
-16 -60 -34 -60 -43 0 -10 -6 -14 -20 -10 -10 3 -27 -2 -37 -10 -10 -8 -12
-12 -5 -8 6 3 12 1 12 -4 0 -15 -23 -14 -39 2 -10 10 -12 9 -9 -3 2 -8 8 -19
13 -23 6 -5 3 -13 -9 -20 -10 -7 -40 -33 -67 -59 -27 -27 -58 -48 -68 -48 -22
0 -40 -20 -19 -20 9 -1 7 -5 -4 -14 -10 -7 -18 -19 -18 -26 0 -17 -30 -50 -44
-50 -7 0 -24 -25 -40 -55 -15 -30 -32 -57 -37 -60 -5 -4 -9 -13 -9 -22 0 -9
-7 -25 -17 -35 -9 -10 -12 -18 -6 -18 6 0 8 -11 5 -25 -2 -14 -7 -25 -11 -25
-3 0 -6 -25 -6 -55 0 -30 3 -55 8 -55 4 0 7 -22 6 -50 -1 -27 -6 -50 -11 -50
-4 0 -8 -5 -8 -11 0 -5 5 -7 12 -3 7 4 8 3 4 -5 -4 -6 -1 -22 7 -35 13 -20 14
-27 2 -50 -12 -23 -12 -26 3 -27 15 0 15 -1 1 -7 -10 -5 -13 -15 -9 -32 4 -17
8 -21 14 -12 4 6 12 12 17 12 6 0 7 -4 4 -10 -3 -5 -1 -10 5 -10 7 0 10 -7 6
-15 -3 -8 1 -21 10 -29 10 -10 11 -17 3 -22 -12 -7 -31 15 -23 28 3 4 -1 8 -8
8 -10 0 -10 2 1 9 8 5 9 11 3 15 -6 3 -13 2 -17 -3 -6 -11 -74 50 -68 62 3 4
9 4 15 1 7 -5 8 -2 3 5 -4 7 -16 11 -26 8 -10 -3 -22 0 -26 5 -3 6 -1 8 5 4 6
-3 14 -2 17 4 4 6 -10 17 -30 26 -42 17 -61 53 -36 71 14 10 12 12 -12 18 -23
6 -26 10 -15 23 11 13 10 15 -11 9 -17 -4 -21 -3 -13 5 7 7 5 16 -9 31 -11 13
-19 35 -19 56 0 27 3 32 10 21 6 -9 10 -10 10 -3 0 6 -5 15 -10 18 -6 4 -8 11
-5 16 4 5 2 9 -4 9 -5 0 -11 26 -13 59 -2 47 0 57 11 53 10 -4 13 0 9 16 -4
12 -2 22 4 22 5 0 7 4 3 9 -3 5 2 16 10 24 10 10 11 17 3 19 -13 5 12 63 40
94 9 11 23 32 30 47 7 16 20 31 30 34 10 2 30 24 46 49 30 47 122 144 137 144
5 0 9 5 9 11 0 7 26 35 57 63 32 28 67 60 78 71 24 23 105 65 126 65 11 0 11
2 -1 10 -9 6 -11 13 -5 18 6 4 11 16 13 27 2 11 11 27 20 35 14 14 15 13 3 -2
-8 -10 -10 -18 -5 -18 16 0 30 15 29 30 -1 19 24 50 40 50 7 0 34 25 61 56 27
31 57 63 67 72 9 9 17 24 17 34 0 10 5 18 10 18 6 0 10 6 10 14 0 8 9 18 20
21 11 3 20 14 20 23 0 15 -2 15 -10 2 -5 -8 -10 -10 -10 -4 0 13 10 24 23 24
5 0 7 -13 4 -30z m266 -6 c-2 -7 1 -14 9 -17 7 -2 3 -2 -10 0 -19 3 -62 35
-62 47 0 2 15 -1 34 -6 21 -7 32 -16 29 -24z m-4213 9 c-8 -3 -22 -12 -32 -20
-10 -9 -18 -11 -22 -4 -8 12 22 31 49 30 14 0 16 -2 5 -6z m224 -74 c-8 -14
-24 -10 -24 6 0 9 6 12 15 9 8 -4 12 -10 9 -15z m3416 11 c0 -5 -4 -10 -10
-10 -5 0 -10 5 -10 10 0 6 5 10 10 10 6 0 10 -4 10 -10z m1090 -64 c0 -61 -36
-190 -66 -242 -56 -96 -191 -214 -297 -262 -27 -12 -28 -11 -22 10 14 44 120
224 188 318 38 52 92 130 120 173 46 70 53 77 64 61 7 -10 13 -36 13 -58z
m-4532 10 c-7 -8 -15 -12 -17 -11 -5 6 10 25 20 25 5 0 4 -6 -3 -14z m2777
-156 c-3 -5 -11 -10 -16 -10 -6 0 -7 5 -4 10 3 6 11 10 16 10 6 0 7 -4 4 -10z
m1100 -80 c-3 -5 -14 -10 -23 -10 -15 0 -15 2 -2 10 20 13 33 13 25 0z m-4095
-45 c-13 -14 -26 -23 -28 -20 -3 3 5 16 18 30 13 14 26 23 28 20 3 -3 -5 -16
-18 -30z m943 8 c-7 -2 -21 -2 -30 0 -10 3 -4 5 12 5 17 0 24 -2 18 -5z m22
-62 c-6 -6 -26 -13 -45 -16 -23 -4 -32 -3 -25 4 6 5 24 11 40 14 17 2 32 5 35
6 2 0 0 -3 -5 -8z m3315 -30 c0 -29 -68 -42 -89 -17 -19 23 23 47 60 34 16 -5
29 -13 29 -17z m-125 -11 c-3 -5 -13 -10 -21 -10 -8 0 -12 5 -9 10 3 6 13 10
21 10 8 0 12 -4 9 -10z m-3234 -24 c-9 -11 -9 -15 1 -19 8 -4 7 -6 -4 -6 -22
-1 -24 -21 -3 -21 8 0 15 -7 15 -15 0 -11 -7 -14 -25 -9 -15 4 -25 2 -25 -5 0
-6 3 -10 8 -8 4 1 8 -2 9 -8 2 -5 -7 -10 -20 -10 -15 -1 -21 -6 -19 -17 2 -12
-3 -15 -16 -11 -14 3 -21 -2 -25 -17 -3 -12 -10 -19 -16 -15 -6 3 -11 -1 -11
-10 0 -8 -8 -18 -17 -22 -10 -3 -34 -19 -54 -35 -20 -15 -42 -28 -49 -28 -6 0
-9 -4 -5 -9 3 -5 -4 -12 -14 -16 -11 -3 -23 -15 -26 -26 -4 -10 -15 -19 -25
-19 -17 0 -16 4 10 43 16 23 55 60 87 82 83 58 172 144 188 182 8 19 21 33 31
33 13 0 14 -3 5 -14z m39 4 c0 -5 -4 -10 -10 -10 -5 0 -10 5 -10 10 0 6 5 10
10 10 6 0 10 -4 10 -10z m3222 -9 c-1 -7 2 -10 7 -6 6 3 21 3 35 -1 22 -5 23
-8 11 -20 -16 -16 -35 -18 -35 -4 0 6 -4 10 -10 10 -18 0 -11 -22 9 -27 13 -3
17 -11 13 -25 -5 -20 -12 -20 -69 -3 -16 5 -23 3 -23 -6 0 -7 3 -9 7 -6 10 11
42 -23 36 -39 -3 -8 -13 -14 -22 -15 -10 0 -11 -2 -3 -6 18 -7 15 -43 -4 -50
-9 -3 -25 -1 -35 5 -23 15 -29 15 -29 2 0 -5 7 -10 15 -10 8 0 15 -4 15 -10 0
-5 10 -10 22 -10 21 0 21 0 3 -14 -18 -13 -17 -14 10 -9 l30 6 -25 -25 c-14
-13 -33 -28 -43 -31 -10 -4 -16 -11 -12 -16 6 -11 -33 -26 -42 -17 -4 3 -2 6
4 6 11 0 11 29 0 47 -4 7 1 14 14 18 19 6 19 8 3 19 -9 7 -14 18 -10 24 5 8
-1 12 -14 12 -12 0 -18 5 -15 10 3 6 1 10 -4 10 -6 0 -11 5 -11 11 0 6 7 9 15
5 13 -4 14 -2 5 14 -6 11 -8 24 -5 29 3 5 -1 12 -7 15 -7 3 -2 3 12 -1 22 -5
23 -4 12 9 -10 13 -10 19 3 31 17 17 10 51 -9 40 -6 -3 -6 0 2 8 10 10 19 11
41 2 24 -9 28 -8 24 3 -3 8 7 16 29 23 39 11 54 8 50 -8z m-1482 -1 l25 -7
-30 -7 c-50 -13 -56 -16 -51 -24 3 -5 -7 -7 -22 -5 -22 4 -24 2 -12 -7 12 -8
9 -9 -13 -4 -15 3 -42 7 -59 8 -32 2 -54 26 -24 26 9 0 16 4 16 9 0 9 47 16
120 18 14 1 36 -2 50 -7z m-260 -10 c0 -5 -7 -10 -15 -10 -8 0 -15 -5 -15 -11
0 -5 -4 -7 -10 -4 -20 12 -10 35 15 35 14 0 25 -4 25 -10z m-1138 -93 c18 -23
33 -44 33 -48 0 -4 3 -11 8 -15 4 -4 7 -2 7 5 0 8 7 10 21 6 16 -6 20 -4 14 6
-5 9 -5 10 2 4 19 -20 31 -62 22 -76 -6 -10 -9 -10 -9 -1 0 6 -5 12 -11 12 -8
0 -8 -4 0 -14 7 -9 26 -13 46 -11 28 2 34 -1 39 -21 4 -14 11 -22 16 -19 6 3
10 -3 10 -14 0 -11 11 -31 24 -44 14 -14 22 -28 19 -31 -4 -3 2 -13 13 -21 18
-14 18 -14 -6 -15 -19 0 -22 -2 -10 -9 8 -6 17 -8 21 -5 4 2 11 -1 15 -7 5 -8
-1 -10 -19 -7 -15 3 -24 2 -22 -3 26 -41 -192 60 -275 128 -8 7 -52 40 -97 73
-46 33 -83 64 -83 70 0 21 28 9 70 -30 80 -74 166 -111 158 -68 -2 9 6 12 22
10 l25 -3 -27 25 c-15 14 -36 26 -48 26 -11 0 -21 6 -21 13 -1 6 -2 19 -3 27
0 8 6 20 14 27 8 7 10 13 5 13 -6 0 -17 -6 -23 -12 -10 -10 -15 -10 -22 2 -6
10 -4 17 5 23 19 10 19 27 1 27 -29 0 -25 17 4 18 23 0 37 -8 62 -41z m2655
-120 c3 -15 9 -30 14 -33 5 -3 9 -13 9 -23 0 -10 7 -31 15 -47 8 -15 12 -30
10 -32 -8 -8 -25 10 -25 26 0 10 -9 23 -20 29 -32 21 -66 173 -43 197 6 6 27
-55 40 -117z m-2398 100 c6 -8 7 -18 3 -22 -4 -5 -2 -5 5 -2 6 4 24 -8 42 -29
31 -39 84 -134 78 -141 -12 -11 -129 134 -148 184 -9 25 2 31 20 10z m-309
-73 c0 -2 -9 0 -20 6 -11 6 -20 13 -20 16 0 2 9 0 20 -6 11 -6 20 -13 20 -16z
m2370 -96 c-21 -94 -32 -122 -68 -168 -46 -57 -214 -220 -223 -214 -17 10 5
111 38 171 49 89 241 285 262 267 2 -1 -2 -27 -9 -56z m-2829 -6 c37 -28 89
-84 89 -96 0 -4 18 -30 41 -58 65 -83 89 -158 49 -158 -11 0 -37 -16 -59 -35
-21 -19 -46 -35 -55 -35 -11 0 -14 -5 -10 -12 4 -7 3 -8 -5 -4 -6 4 -27 2 -46
-5 -33 -12 -35 -12 -70 24 -39 40 -83 126 -92 180 -8 55 22 136 69 184 23 24
45 43 48 43 3 0 21 -13 41 -28z m3354 -12 c-3 -5 -10 -10 -16 -10 -5 0 -9 5
-9 10 0 6 7 10 16 10 8 0 12 -4 9 -10z m-360 -51 c4 -25 11 -37 18 -33 7 3 1
-4 -13 -17 l-25 -22 25 7 25 7 -25 -15 c-14 -9 -19 -15 -12 -16 14 0 17 -30 2
-30 -5 0 -10 -11 -10 -25 0 -14 -4 -25 -9 -25 -5 0 -21 -20 -35 -45 -17 -27
-36 -47 -51 -51 -14 -3 -25 -12 -25 -20 0 -8 -7 -14 -15 -14 -9 0 -18 -7 -22
-16 -3 -8 -12 -13 -20 -10 -8 4 -11 1 -8 -5 10 -15 -24 -37 -67 -44 -21 -4
-38 -11 -38 -16 0 -10 -35 7 -57 28 -15 13 -7 43 11 43 24 0 170 155 166 177
-1 4 9 10 22 13 13 3 24 14 26 23 2 10 21 37 43 60 21 23 44 54 51 68 16 36
35 26 43 -22z m-3185 21 c0 -5 -4 -10 -10 -10 -5 0 -10 5 -10 10 0 6 5 10 10
10 6 0 10 -4 10 -10z m3524 1 c4 -5 3 -16 0 -25 -5 -12 -10 -13 -24 -4 -13 9
-15 14 -6 24 13 16 23 17 30 5z m-3549 -41 c-3 -5 -11 -10 -16 -10 -6 0 -7 5
-4 10 3 6 11 10 16 10 6 0 7 -4 4 -10z m3459 -6 c4 -10 1 -14 -6 -12 -15 5
-23 28 -10 28 5 0 13 -7 16 -16z m106 -14 c0 -5 -4 -10 -10 -10 -5 0 -10 5
-10 10 0 6 5 10 10 10 6 0 10 -4 10 -10z m-85 -21 c11 -17 -1 -21 -15 -4 -8 9
-8 15 -2 15 6 0 14 -5 17 -11z m75 -9 c13 -8 13 -10 -2 -10 -9 0 -20 5 -23 10
-8 13 5 13 25 0z m-2575 -30 c3 -5 -1 -10 -9 -10 -9 0 -16 5 -16 10 0 6 4 10
9 10 6 0 13 -4 16 -10z m2529 -6 c5 -14 4 -15 -9 -4 -17 14 -19 20 -6 20 5 0
12 -7 15 -16z m-2184 -308 c0 -3 -4 -8 -10 -11 -5 -3 -10 -1 -10 4 0 6 5 11
10 11 6 0 10 -2 10 -4z m-630 -141 c0 -8 -27 -32 -59 -55 -53 -35 -66 -40
-118 -40 -62 0 -85 9 -89 34 -5 32 109 74 204 75 48 1 62 -2 62 -14z m121 -64
c0 -3 2 -13 4 -23 2 -10 -5 -18 -20 -20 -25 -5 -35 12 -35 60 0 22 1 22 25 6
14 -9 25 -19 26 -23z m593 10 c7 -10 -22 -102 -37 -116 -6 -7 -7 2 -2 25 8 39
13 69 14 88 1 14 17 16 25 3z m-92 -58 c-1 -56 -33 -149 -71 -207 l-26 -40 -3
41 c-4 49 34 179 58 203 10 10 21 28 25 40 10 32 17 17 17 -37z m-612 28 c0
-26 -13 -33 -40 -23 -21 8 -21 9 -5 25 22 23 45 21 45 -2z m3138 -26 c13 -49
15 -116 6 -152 -5 -18 -14 -23 -40 -23 -50 0 -63 32 -36 91 11 24 23 60 27 79
14 66 26 67 43 5z m-3329 -11 c7 -7 -31 -33 -58 -40 -25 -7 -51 15 -51 44 0
12 10 13 52 8 29 -4 55 -9 57 -12z m186 -35 c4 -12 1 -27 -8 -37 -9 -9 -15
-21 -14 -27 3 -18 -119 -18 -154 0 -17 9 -29 18 -27 20 2 2 22 17 43 34 33 24
50 30 97 30 49 1 58 -2 63 -20z m94 -8 c11 -7 9 -11 -8 -20 -18 -10 -21 -9
-21 9 0 22 7 25 29 11z m1819 -73 c3 -44 19 -99 39 -137 31 -59 30 -85 -2 -46
-14 17 -25 37 -25 46 0 8 -5 20 -11 26 -14 14 -30 84 -23 106 6 20 20 23 22 5z
m-1838 -38 c0 -5 -4 -10 -10 -10 -5 0 -10 5 -10 10 0 6 5 10 10 10 6 0 10 -4
10 -10z m2015 -115 c26 -68 32 -100 16 -91 -12 7 -57 121 -66 166 -7 34 -6 34
9 13 9 -12 28 -52 41 -88z m-68 -82 c13 -14 21 -28 19 -31 -5 -4 -56 46 -56
54 0 11 17 1 37 -23z m837 -12 c26 -5 51 -13 55 -19 4 -6 23 -18 42 -26 20 -8
43 -26 52 -39 22 -33 9 -79 -24 -88 -16 -5 -18 -7 -6 -8 9 -1 17 -5 17 -9 0
-12 -60 -72 -72 -72 -5 0 -16 -6 -23 -14 -17 -16 -190 -22 -199 -7 -4 6 -12 8
-19 5 -15 -6 -97 62 -97 81 0 7 -6 18 -14 24 -9 8 -12 25 -9 49 6 47 72 111
118 112 17 1 39 5 50 10 25 11 66 11 129 1z m442 -29 c-9 -10 -42 -15 -103
-17 -54 -2 -78 0 -63 5 14 4 18 9 10 9 -13 1 -13 3 -1 10 8 5 49 9 93 8 68 -1
77 -3 64 -15z m-1099 -264 c29 -33 83 -126 99 -170 16 -45 16 -45 -75 -19 -46
13 -68 24 -74 39 -6 12 -19 22 -29 22 -11 0 -18 4 -16 8 34 82 62 142 68 142
3 0 16 -10 27 -22z m-169 -130 c-3 -7 -15 -14 -29 -16 -23 -2 -23 -2 -5 13 24
18 39 20 34 3z m-70 -54 c52 -5 72 -4 72 5 0 23 188 -10 203 -36 4 -7 16 -13
26 -13 9 0 30 -14 47 -31 16 -17 43 -39 60 -49 33 -21 72 -90 81 -144 8 -49
-4 -88 -25 -84 -13 3 -16 12 -14 41 2 24 -2 42 -13 53 -19 20 -24 16 -27 -19
-1 -15 -6 -27 -10 -27 -4 0 -5 -9 -3 -20 10 -54 -57 -154 -114 -166 -48 -11
-126 -36 -135 -45 -5 -4 -22 -5 -37 -2 -23 4 -29 2 -29 -12 0 -15 -6 -17 -36
-12 -30 5 -37 3 -41 -14 -7 -25 -29 -19 -25 7 2 17 0 17 -17 -3 -20 -24 -84
-32 -96 -13 -3 6 -29 10 -56 10 -83 0 -231 59 -312 124 -49 39 -80 106 -81
171 0 42 6 59 34 98 41 58 118 119 140 112 9 -3 25 2 36 10 10 8 27 15 37 15
10 0 29 8 44 17 32 21 137 43 183 38 19 -3 68 -7 108 -11z m-1405 -370 c-38
-14 -42 -18 -38 -44 2 -15 8 -37 14 -49 10 -18 8 -21 -14 -27 -14 -3 -39 -4
-54 -1 -26 5 -30 2 -41 -26 -6 -18 -16 -40 -21 -49 -15 -28 -11 -35 23 -42 28
-6 37 -1 78 37 25 24 66 60 91 81 54 42 72 92 42 113 -15 12 -15 13 0 13 44 0
86 -40 79 -76 -3 -17 30 -42 35 -26 9 23 85 14 135 -18 55 -35 74 -80 56 -133
-29 -83 -69 -100 -179 -71 -76 20 -89 15 -89 -32 0 -20 -4 -21 -131 -20 l-131
1 5 30 c3 17 7 36 9 44 2 8 -9 19 -24 25 -24 8 -30 6 -48 -17 -13 -16 -31 -27
-45 -27 -31 0 -41 17 -15 25 13 4 20 15 20 30 0 20 -7 26 -40 35 -22 6 -40 15
-40 21 0 8 27 6 67 -6 22 -7 35 23 28 63 -5 34 -4 39 20 50 14 7 37 12 50 12
17 0 29 9 39 28 27 52 58 69 126 70 l35 0 -42 -14z m-300 -16 c-5 -23 -5 -23
10 -3 8 11 19 17 23 12 4 -4 2 -7 -4 -7 -7 0 -12 -7 -12 -16 0 -11 -5 -14 -17
-9 -10 4 -24 8 -30 8 -7 0 -13 6 -13 13 0 11 13 18 42 23 3 0 4 -9 1 -21z
m631 -33 c-7 -16 -24 -21 -24 -6 0 8 7 13 27 20 1 1 0 -6 -3 -14z m-291 -31
c-4 -10 -9 -12 -15 -6 -12 12 -1 35 12 27 5 -3 6 -13 3 -21z m387 14 c8 0 25
-1 38 -4 19 -4 21 -8 12 -24 -8 -15 -6 -19 13 -22 18 -2 22 -9 22 -38 0 -33
-2 -35 -37 -38 -33 -3 -38 0 -44 22 -3 14 -26 42 -50 62 -24 21 -44 41 -44 46
0 4 17 5 38 2 20 -4 44 -6 52 -6z m-710 -16 c0 -21 -34 -53 -79 -77 -17 -8
-31 -18 -31 -20 0 -2 15 -9 33 -14 29 -8 26 -9 -30 -10 -69 -1 -89 12 -46 31
37 17 91 66 98 89 8 26 55 26 55 1z m-126 -14 c-26 -32 -46 -48 -58 -48 -6 0
-2 6 9 12 11 7 28 22 38 35 10 13 21 23 24 23 3 0 -2 -10 -13 -22z m-80 -63
c-10 -39 18 -72 68 -82 l43 -9 -39 -8 c-29 -5 -36 -10 -25 -16 9 -6 -5 -8 -38
-6 -73 5 -76 9 -70 74 6 55 17 72 50 72 14 0 16 -5 11 -25z m2162 0 c-21 -16
-126 -49 -133 -42 -2 3 19 12 49 21 29 9 60 20 68 26 23 15 37 11 16 -5z
m-1736 1 c0 -3 -4 -8 -10 -11 -5 -3 -10 -1 -10 4 0 6 5 11 10 11 6 0 10 -2 10
-4z"/>
<path d="M2448 6503 c7 -3 16 -2 19 1 4 3 -2 6 -13 5 -11 0 -14 -3 -6 -6z"/>
<path d="M3195 6150 c3 -5 8 -10 11 -10 2 0 4 5 4 10 0 6 -5 10 -11 10 -5 0
-7 -4 -4 -10z"/>
<path d="M3800 6130 c8 -5 20 -10 25 -10 6 0 3 5 -5 10 -8 5 -19 10 -25 10 -5
0 -3 -5 5 -10z"/>
<path d="M3210 6025 c1 -6 10 -26 21 -45 15 -26 18 -29 13 -10 -7 27 -34 71
-34 55z"/>
<path d="M2730 5997 c0 -15 32 -19 45 -6 12 12 10 14 -15 14 -17 0 -30 -4 -30
-8z"/>
<path d="M3370 5976 c0 -2 7 -9 15 -16 13 -11 14 -10 9 4 -5 14 -24 23 -24 12z"/>
<path d="M1955 5750 c3 -5 8 -10 11 -10 2 0 4 5 4 10 0 6 -5 10 -11 10 -5 0
-7 -4 -4 -10z"/>
<path d="M1930 5742 c0 -12 19 -26 26 -19 2 2 -2 10 -11 17 -9 8 -15 8 -15 2z"/>
<path d="M4198 5733 c7 -3 16 -2 19 1 4 3 -2 6 -13 5 -11 0 -14 -3 -6 -6z"/>
<path d="M2350 5633 c0 -10 4 -14 8 -8 4 6 11 13 16 18 5 4 2 7 -7 7 -10 0
-17 -8 -17 -17z"/>
<path d="M5148 5643 c7 -3 16 -2 19 1 4 3 -2 6 -13 5 -11 0 -14 -3 -6 -6z"/>
<path d="M2785 5570 c3 -5 8 -10 11 -10 2 0 4 5 4 10 0 6 -5 10 -11 10 -5 0
-7 -4 -4 -10z"/>
<path d="M2418 5553 c7 -3 16 -2 19 1 4 3 -2 6 -13 5 -11 0 -14 -3 -6 -6z"/>
<path d="M3676 5525 c4 -8 11 -15 16 -15 6 0 5 6 -2 15 -7 8 -14 15 -16 15 -2
0 -1 -7 2 -15z"/>
<path d="M3650 5490 c-23 -5 -27 -8 -12 -9 16 -1 22 -7 22 -26 0 -14 4 -25 10
-25 5 0 7 6 4 13 -3 8 2 20 11 27 16 13 21 31 8 29 -5 -1 -24 -5 -43 -9z"/>
<path d="M4483 5455 c0 -8 4 -15 9 -15 4 0 8 7 8 15 0 8 -4 15 -8 15 -5 0 -9
-7 -9 -15z"/>
<path d="M4510 5450 c0 -5 7 -10 16 -10 8 0 12 5 9 10 -3 6 -10 10 -16 10 -5
0 -9 -4 -9 -10z"/>
<path d="M4555 5451 c-3 -5 0 -13 6 -17 7 -4 9 -3 5 4 -3 5 0 13 6 15 9 4 10
6 1 6 -6 1 -14 -3 -18 -8z"/>
<path d="M4280 5424 c0 -8 5 -12 10 -9 6 4 8 11 5 16 -9 14 -15 11 -15 -7z"/>
<path d="M4213 5406 c-27 -13 -30 -26 -7 -26 15 0 44 23 44 34 0 8 -11 6 -37
-8z"/>
<path d="M2430 5391 c0 -12 37 -24 50 -16 5 3 10 12 9 18 0 9 -2 9 -6 0 -6
-15 -33 -17 -33 -3 0 6 -4 10 -10 10 -5 0 -10 -4 -10 -9z"/>
<path d="M4775 5036 c11 -8 24 -12 29 -8 5 3 1 9 -10 13 -31 12 -39 10 -19 -5z"/>
<path d="M4008 5013 c7 -3 16 -2 19 1 4 3 -2 6 -13 5 -11 0 -14 -3 -6 -6z"/>
<path d="M5070 5010 c-13 -9 -13 -10 0 -10 8 0 22 5 30 10 13 9 13 10 0 10 -8
0 -22 -5 -30 -10z"/>
<path d="M4430 4990 c0 -5 5 -10 10 -10 6 0 10 5 10 10 0 6 -4 10 -10 10 -5 0
-10 -4 -10 -10z"/>
<path d="M4460 4894 c0 -8 5 -12 10 -9 6 4 8 11 5 16 -9 14 -15 11 -15 -7z"/>
<path d="M4610 4850 c-9 -8 -11 -12 -5 -8 6 4 17 3 24 -2 13 -7 41 9 41 24 0
11 -44 1 -60 -14z"/>
<path d="M4467 4827 c-4 -10 -2 -17 4 -17 7 0 9 -10 4 -27 -6 -27 -6 -27 14
-9 17 16 18 21 7 30 -8 6 -16 18 -18 25 -3 12 -6 12 -11 -2z"/>
<path d="M4655 4800 c3 -5 8 -10 11 -10 2 0 4 5 4 10 0 6 -5 10 -11 10 -5 0
-7 -4 -4 -10z"/>
<path d="M4433 4764 c-7 -7 -13 -21 -13 -30 0 -14 3 -14 15 -4 18 15 30 7 22
-14 -4 -10 -13 -13 -23 -9 -14 5 -14 3 2 -15 22 -26 28 -28 20 -7 -3 8 -1 15
4 15 6 0 10 7 10 16 0 9 8 23 18 31 12 10 13 13 2 10 -8 -2 -22 1 -30 8 -12
11 -17 11 -27 -1z"/>
<path d="M4745 4660 c3 -5 11 -10 16 -10 6 0 7 5 4 10 -3 6 -11 10 -16 10 -6
0 -7 -4 -4 -10z"/>
<path d="M4640 4652 c0 -13 38 -23 46 -11 3 5 1 9 -5 9 -5 0 -16 3 -25 6 -9 3
-16 2 -16 -4z"/>
<path d="M1556 5684 c-4 -10 -1 -14 6 -12 15 5 23 28 10 28 -5 0 -13 -7 -16
-16z"/>
<path d="M1570 5650 c0 -5 5 -10 10 -10 6 0 10 5 10 10 0 6 -4 10 -10 10 -5 0
-10 -4 -10 -10z"/>
<path d="M1385 5620 c-16 -7 -12 -9 18 -9 23 -1 36 3 32 9 -7 12 -23 12 -50 0z"/>
<path d="M1555 5620 c-3 -5 -1 -10 4 -10 6 0 11 5 11 10 0 6 -2 10 -4 10 -3 0
-8 -4 -11 -10z"/>
<path d="M1458 5613 c7 -3 16 -2 19 1 4 3 -2 6 -13 5 -11 0 -14 -3 -6 -6z"/>
<path d="M1475 5590 c-3 -5 -2 -10 4 -10 5 0 13 5 16 10 3 6 2 10 -4 10 -5 0
-13 -4 -16 -10z"/>
<path d="M1210 5579 c0 -5 5 -7 10 -4 6 3 10 8 10 11 0 2 -4 4 -10 4 -5 0 -10
-5 -10 -11z"/>
<path d="M1318 5533 c7 -3 16 -2 19 1 4 3 -2 6 -13 5 -11 0 -14 -3 -6 -6z"/>
<path d="M2083 5385 c-3 -9 -3 -18 -1 -21 3 -3 8 4 11 16 6 23 -1 27 -10 5z"/>
<path d="M2133 5205 c0 -8 6 -16 14 -19 15 -6 15 -4 7 18 -8 20 -21 21 -21 1z"/>
<path d="M2275 4990 c3 -5 11 -10 16 -10 6 0 7 5 4 10 -3 6 -11 10 -16 10 -6
0 -7 -4 -4 -10z"/>
<path d="M2368 4973 c7 -3 16 -2 19 1 4 3 -2 6 -13 5 -11 0 -14 -3 -6 -6z"/>
<path d="M2000 4840 c0 -5 9 -10 21 -10 11 0 17 5 14 10 -3 6 -13 10 -21 10
-8 0 -14 -4 -14 -10z"/>
<path d="M1015 4800 c3 -5 8 -10 11 -10 2 0 4 5 4 10 0 6 -5 10 -11 10 -5 0
-7 -4 -4 -10z"/>
<path d="M1945 4640 c-3 -6 1 -7 9 -4 18 7 21 14 7 14 -6 0 -13 -4 -16 -10z"/>
<path d="M1891 4584 c0 -11 3 -14 6 -6 3 7 2 16 -1 19 -3 4 -6 -2 -5 -13z"/>
<path d="M1940 4555 c0 -8 4 -15 10 -15 5 0 7 7 4 15 -4 8 -8 15 -10 15 -2 0
-4 -7 -4 -15z"/>
<path d="M3095 4810 c-63 -9 -83 -17 -120 -52 -16 -15 -37 -28 -45 -28 -10 0
-11 -3 -3 -11 7 -7 9 -25 6 -40 -9 -46 53 -101 143 -128 88 -26 120 -26 214
-2 84 22 115 42 142 91 23 42 17 88 -15 112 -12 10 -17 18 -12 18 6 1 -30 12
-80 25 -91 25 -139 28 -230 15z m194 -58 c3 -5 19 -12 35 -16 23 -6 27 -11 23
-28 -4 -14 0 -26 11 -34 12 -9 13 -13 4 -14 -7 0 -11 -4 -8 -9 6 -9 -47 -60
-62 -62 -4 0 -29 -2 -57 -4 -58 -5 -108 3 -100 16 4 5 -7 6 -24 3 -21 -4 -35
-1 -46 10 -9 9 -12 16 -5 16 6 0 8 5 4 12 -5 8 -2 9 10 5 10 -4 29 -7 42 -7
14 0 22 -4 19 -10 -8 -13 45 -24 102 -21 12 0 36 13 53 27 29 25 30 27 12 39
-10 7 -31 15 -47 17 -24 2 -31 8 -33 31 -2 15 -8 27 -13 27 -6 0 -7 5 -3 11 7
13 74 5 83 -9z m-154 -2 c3 -5 -3 -10 -14 -10 -11 0 -22 -4 -26 -10 -3 -5 -13
-6 -23 -3 -14 6 -15 4 -4 -9 10 -13 10 -19 -3 -32 -11 -10 -12 -16 -4 -16 9 0
8 -4 -1 -15 -13 -16 -35 -21 -26 -6 3 5 -1 14 -9 21 -17 14 -9 40 14 41 13 0
13 2 2 6 -9 4 2 13 30 24 53 21 56 22 64 9z"/>
<path d="M4042 4616 c7 -8 15 -12 17 -11 5 6 -10 25 -20 25 -5 0 -4 -6 3 -14z"/>
<path d="M3855 4370 c3 -5 14 -10 23 -10 15 0 15 2 2 10 -20 13 -33 13 -25 0z"/>
<path d="M3507 4130 c-20 -10 -56 -25 -80 -33 l-42 -15 37 -1 c43 -1 70 8 62
20 -3 5 1 9 8 9 7 0 24 9 38 20 31 24 26 24 -23 0z"/>
<path d="M3300 4040 c0 -6 7 -10 15 -10 8 0 15 2 15 4 0 2 -7 6 -15 10 -8 3
-15 1 -15 -4z"/>
<path d="M3519 4013 c-13 -15 -12 -15 11 -3 34 17 36 20 18 20 -9 0 -22 -7
-29 -17z"/>
<path d="M3326 3992 c-3 -6 -1 -14 5 -17 15 -10 25 3 12 16 -7 7 -13 7 -17 1z"/>
<path d="M2610 4419 c0 -5 5 -7 10 -4 6 3 10 8 10 11 0 2 -4 4 -10 4 -5 0 -10
-5 -10 -11z"/>
<path d="M1998 4103 c7 -3 16 -2 19 1 4 3 -2 6 -13 5 -11 0 -14 -3 -6 -6z"/>
<path d="M1613 3805 c0 -16 7 -18 31 -9 20 8 11 24 -13 24 -10 0 -18 -7 -18
-15z"/>
<path d="M2725 2490 c-3 -5 -2 -10 4 -10 5 0 13 5 16 10 3 6 2 10 -4 10 -5 0
-13 -4 -16 -10z"/>
<path d="M2710 2299 c0 -5 5 -7 10 -4 6 3 10 8 10 11 0 2 -4 4 -10 4 -5 0 -10
-5 -10 -11z"/>
<path d="M5450 4180 c0 -5 5 -10 11 -10 5 0 7 5 4 10 -3 6 -8 10 -11 10 -2 0
-4 -4 -4 -10z"/>
<path d="M5075 4120 c3 -5 11 -10 16 -10 6 0 7 5 4 10 -3 6 -11 10 -16 10 -6
0 -7 -4 -4 -10z"/>
<path d="M4145 3970 c3 -5 10 -10 16 -10 5 0 9 5 9 10 0 6 -7 10 -16 10 -8 0
-12 -4 -9 -10z"/>
<path d="M4920 3850 c8 -5 22 -10 30 -10 13 0 13 1 0 10 -8 5 -22 10 -30 10
-13 0 -13 -1 0 -10z"/>
<path d="M2750 3810 c0 -5 7 -10 15 -10 8 0 15 5 15 10 0 6 -7 10 -15 10 -8 0
-15 -4 -15 -10z"/>
<path d="M3145 3770 c25 -11 71 -13 61 -3 -4 4 -24 8 -44 9 -28 2 -32 0 -17
-6z"/>
<path d="M2520 3394 c0 -3 11 -19 24 -35 13 -15 26 -34 29 -41 2 -7 7 -11 10
-8 7 7 -45 90 -55 90 -5 0 -8 -3 -8 -6z"/>
<path d="M3844 3311 c4 -5 0 -11 -6 -14 -7 -2 -10 -8 -6 -12 4 -4 11 -4 17 0
14 8 14 35 0 35 -5 0 -8 -4 -5 -9z"/>
<path d="M2970 3272 c0 -8 29 -25 65 -41 6 -2 -1 8 -14 23 -24 25 -51 35 -51
18z"/>
<path d="M3142 3179 c2 -6 8 -10 13 -10 5 0 11 4 13 10 2 6 -4 11 -13 11 -9 0
-15 -5 -13 -11z"/>
<path d="M3630 3170 c-9 -6 -10 -10 -3 -10 6 0 15 5 18 10 8 12 4 12 -15 0z"/>
<path d="M3358 3103 c6 -2 18 -2 25 0 6 3 1 5 -13 5 -14 0 -19 -2 -12 -5z"/>
<path d="M4783 3333 c-18 -6 -16 -23 1 -23 17 0 30 16 19 23 -5 2 -14 2 -20 0z"/>
<path d="M4280 2830 c-13 -8 -13 -10 2 -10 9 0 20 5 23 10 8 13 -5 13 -25 0z"/>
<path d="M2169 2604 c-6 -8 -9 -17 -6 -20 8 -8 47 5 47 16 0 15 -29 19 -41 4z"/>
<path d="M2220 2571 c0 -6 4 -13 10 -16 6 -3 7 1 4 9 -7 18 -14 21 -14 7z"/>
<path d="M4786 1432 c-58 -23 -60 -76 -3 -95 6 -2 4 -11 -4 -24 -34 -56 39
-99 155 -91 51 4 63 9 87 36 25 28 27 35 17 57 -6 15 -17 24 -25 21 -7 -3 -27
1 -45 9 -18 8 -28 14 -22 15 18 0 12 28 -11 50 -31 29 -104 40 -149 22z m92
-38 c27 -19 20 -34 -16 -34 -36 0 -56 14 -49 34 8 20 36 20 65 0z m71 -87 c16
-21 -24 -60 -52 -51 -40 12 -49 46 -15 56 37 10 55 9 67 -5z"/>
<path d="M3808 894 c-4 -3 -4 -12 -2 -19 3 -8 -6 -20 -23 -29 -16 -8 -36 -23
-44 -32 -13 -17 -13 -17 11 -1 46 32 44 17 -5 -33 -41 -42 -51 -47 -56 -33 -5
15 -9 12 -23 -15 -15 -28 -21 -32 -59 -32 -51 -1 -35 -11 46 -30 57 -13 77
-30 35 -30 -22 0 -21 -1 7 -29 33 -32 136 -91 158 -91 17 0 27 -21 27 -56 0
-32 8 -30 45 10 30 33 33 34 108 34 77 1 134 13 173 38 15 10 29 11 54 4 57
-16 75 -13 75 14 0 18 -3 22 -12 14 -8 -6 -19 -6 -33 2 l-21 11 26 30 c14 17
25 35 25 39 0 14 -28 1 -34 -16 -3 -8 -10 -14 -15 -14 -6 0 -3 16 5 36 9 20
13 47 10 60 -7 28 8 32 23 7 14 -24 14 -13 0 26 -8 24 -8 35 1 46 11 13 8 15
-19 15 -18 0 -48 8 -69 19 -47 24 -149 40 -277 45 -55 2 -107 7 -116 10 -8 4
-18 4 -21 0z m119 -30 c-3 -3 -12 -4 -19 -1 -8 3 -5 6 6 6 11 1 17 -2 13 -5z
m136 -1 c-13 -2 -33 -2 -45 0 -13 2 -3 4 22 4 25 0 35 -2 23 -4z m69 -41 c21
-9 38 -20 38 -24 0 -11 -69 -28 -112 -28 -48 0 -140 60 -111 72 26 11 142 -2
185 -20z m-312 -57 c0 -37 -3 -45 -19 -45 -10 0 -33 -3 -51 -7 l-33 -6 19 33
c19 32 59 70 75 70 5 0 9 -20 9 -45z m113 -16 c-22 -8 -33 -3 -33 16 0 12 5
12 26 3 23 -11 24 -13 7 -19z m327 -34 c4 -37 0 -53 -18 -75 l-18 -22 -36 24
c-41 25 -48 44 -20 52 9 3 30 17 46 31 31 26 43 24 46 -10z m-223 -27 l23 -22
-29 -12 c-40 -17 -123 0 -119 24 6 35 91 42 125 10z m-226 -49 c53 -11 55 -12
51 -40 l-4 -28 -36 15 c-20 8 -39 19 -42 23 -3 5 -14 10 -24 12 -23 5 -34 29
-14 29 8 0 39 -5 69 -11z m-83 -27 c6 -18 -15 -14 -22 4 -4 10 -1 14 6 12 6
-2 14 -10 16 -16z m250 -8 c-26 -26 -48 -26 -48 1 0 8 7 11 19 8 10 -3 22 0
25 6 4 6 12 11 19 11 6 0 0 -12 -15 -26z m137 -19 l30 -7 -24 -13 c-14 -7 -45
-13 -70 -13 l-46 -1 30 23 c16 13 34 22 40 21 5 -2 23 -6 40 -10z m-245 -45
c0 -5 -4 -10 -9 -10 -6 0 -13 5 -16 10 -3 6 1 10 9 10 9 0 16 -4 16 -10z m198
-17 c-10 -2 -26 -2 -35 0 -10 3 -2 5 17 5 19 0 27 -2 18 -5z"/>
<path d="M3695 780 c-3 -5 -1 -10 4 -10 6 0 11 5 11 10 0 6 -2 10 -4 10 -3 0
-8 -4 -11 -10z"/>
<path d="M2851 512 c-12 -9 -24 -34 -28 -55 -4 -30 0 -45 21 -77 14 -22 30
-40 35 -40 5 0 16 -6 24 -14 11 -11 24 -12 53 -6 65 15 79 53 44 125 -28 60
-41 71 -86 78 -32 5 -47 3 -63 -11z m79 -42 c10 -18 8 -20 -20 -20 -23 0 -30
4 -30 20 0 13 7 20 20 20 10 0 24 -9 30 -20z m-15 -51 c11 -17 -1 -21 -15 -4
-8 9 -8 15 -2 15 6 0 14 -5 17 -11z"/>
<path d="M2710 446 c-86 -41 -118 -69 -136 -114 -9 -24 -14 -45 -11 -48 2 -3
34 -2 71 2 64 7 66 8 66 35 0 25 4 28 38 31 l37 3 -1 55 c-1 30 -6 55 -10 56
-5 1 -29 -8 -54 -20z"/>
<path d="M1393 2033 c-15 -5 -17 -23 -4 -23 5 0 11 7 15 15 3 8 4 15 3 14 -1
0 -8 -3 -14 -6z"/>
<path d="M4018 283 c7 -3 16 -2 19 1 4 3 -2 6 -13 5 -11 0 -14 -3 -6 -6z"/>
<path d="M1735 80 c3 -5 11 -10 16 -10 6 0 7 5 4 10 -3 6 -11 10 -16 10 -6 0
-7 -4 -4 -10z"/>
<path d="M27 3 c18 -2 50 -2 70 0 21 2 7 4 -32 4 -38 0 -55 -2 -38 -4z"/>
</g>
</svg>
